<svg width="428" height="500" viewBox="0 0 428 500" fill="none" xmlns="http://www.w3.org/2000/svg">
<g clip-path="url(#clip0_836_3733)">
<circle cx="25.5" cy="246.5" r="245.5" fill="url(#paint0_linear_836_3733)"/>
<circle cx="438.5" cy="93.5" r="91.5" fill="url(#paint1_linear_836_3733)"/>
<g clip-path="url(#clip1_836_3733)">
<path d="M54.4653 496.192C54.4653 490.674 56.6618 485.382 60.5716 481.481C64.4815 477.579 69.7843 475.387 75.3136 475.387C80.8429 475.387 86.1458 477.579 90.0556 481.481C93.9654 485.382 96.1619 490.674 96.1619 496.192" fill="#F2F2F2"/>
<path d="M75.3135 496.192C75.164 496.192 75.0207 496.133 74.915 496.027C74.8094 495.922 74.75 495.779 74.75 495.629V484.665C74.75 484.516 74.8094 484.373 74.915 484.267C75.0207 484.162 75.164 484.103 75.3135 484.103C75.4629 484.103 75.6062 484.162 75.7119 484.267C75.8176 484.373 75.8769 484.516 75.8769 484.665V495.629C75.8769 495.779 75.8176 495.922 75.7119 496.027C75.6062 496.132 75.4629 496.192 75.3135 496.192Z" fill="#CCCCCC"/>
<path d="M75.3136 492.424C75.179 492.424 75.0488 492.376 74.9468 492.289L68.1853 486.497C68.1286 486.449 68.0821 486.391 68.0482 486.325C68.0144 486.259 67.9939 486.187 67.9881 486.113C67.9822 486.039 67.9911 485.965 68.0141 485.894C68.0371 485.824 68.0739 485.759 68.1222 485.702C68.1706 485.646 68.2297 485.6 68.296 485.567C68.3623 485.533 68.4345 485.513 68.5086 485.508C68.5826 485.502 68.6571 485.512 68.7275 485.535C68.798 485.558 68.8632 485.595 68.9192 485.644L75.6809 491.435C75.7682 491.51 75.8305 491.61 75.8593 491.721C75.8882 491.832 75.8822 491.95 75.8422 492.057C75.8022 492.165 75.7301 492.258 75.6356 492.324C75.541 492.389 75.4287 492.424 75.3136 492.424Z" fill="#CCCCCC"/>
<path d="M118.701 496.192C118.701 490.674 120.897 485.382 124.807 481.481C128.717 477.579 134.02 475.387 139.549 475.387C145.078 475.387 150.381 477.579 154.291 481.481C158.201 485.382 160.397 490.674 160.397 496.192" fill="#F2F2F2"/>
<path d="M139.549 496.192C139.399 496.192 139.256 496.133 139.15 496.027C139.045 495.922 138.985 495.779 138.985 495.629V484.665C138.985 484.516 139.045 484.373 139.15 484.267C139.256 484.162 139.399 484.103 139.549 484.103C139.698 484.103 139.842 484.162 139.947 484.267C140.053 484.373 140.112 484.516 140.112 484.665V495.629C140.112 495.779 140.053 495.922 139.947 496.027C139.842 496.132 139.698 496.192 139.549 496.192Z" fill="#CCCCCC"/>
<path d="M139.549 492.424C139.414 492.424 139.284 492.376 139.182 492.289L132.421 486.498C132.307 486.4 132.237 486.262 132.226 486.114C132.214 485.965 132.263 485.818 132.36 485.705C132.457 485.591 132.596 485.521 132.745 485.51C132.894 485.499 133.041 485.547 133.155 485.644L139.916 491.435C140.004 491.51 140.066 491.61 140.095 491.721C140.124 491.832 140.118 491.95 140.078 492.057C140.038 492.165 139.965 492.258 139.871 492.324C139.776 492.389 139.664 492.424 139.549 492.424Z" fill="#CCCCCC"/>
<path d="M200.828 395.337C201.69 395.137 202.497 394.751 203.194 394.206C203.89 393.661 204.458 392.971 204.858 392.183C205.258 391.395 205.48 390.53 205.508 389.647C205.537 388.764 205.371 387.886 205.022 387.074L227.337 336.765L214.572 333.557L196.651 384.018C195.324 384.693 194.29 385.83 193.746 387.214C193.203 388.598 193.187 390.133 193.701 391.529C194.216 392.924 195.226 394.082 196.539 394.784C197.853 395.486 199.379 395.683 200.828 395.337V395.337Z" fill="#A0616A"/>
<path d="M220.936 352.51L208.521 346.711C208.167 346.546 207.854 346.307 207.601 346.01C207.349 345.713 207.164 345.366 207.058 344.991C206.953 344.616 206.929 344.223 206.99 343.839C207.05 343.454 207.193 343.087 207.408 342.763L214.953 331.392C215.81 329.594 217.346 328.209 219.225 327.54C221.103 326.87 223.171 326.971 224.975 327.82C226.78 328.669 228.173 330.198 228.85 332.07C229.527 333.942 229.433 336.006 228.588 337.809L224.686 350.834C224.575 351.207 224.384 351.551 224.126 351.844C223.869 352.136 223.552 352.37 223.196 352.529C222.84 352.688 222.454 352.769 222.064 352.766C221.674 352.762 221.289 352.675 220.936 352.51H220.936Z" fill="#FE9A76"/>
<path d="M177.77 346.04L191.458 355.711C191.633 355.838 191.844 355.906 192.061 355.906C192.278 355.906 192.489 355.838 192.664 355.711L196.363 352.939C196.486 352.849 196.587 352.733 196.659 352.599C196.731 352.465 196.771 352.317 196.777 352.165C196.784 352.013 196.756 351.861 196.695 351.722C196.635 351.582 196.544 351.458 196.429 351.358L185.897 341.986C185.758 341.865 185.59 341.783 185.41 341.748C185.229 341.713 185.043 341.727 184.869 341.787L178.016 344.235C177.84 344.299 177.685 344.411 177.567 344.557C177.45 344.703 177.374 344.878 177.349 345.064C177.324 345.249 177.35 345.438 177.424 345.61C177.498 345.782 177.618 345.931 177.77 346.04H177.77Z" fill="#3F3D56"/>
<path d="M179.014 345.294L191.349 354.009C191.411 354.056 191.486 354.081 191.564 354.082C191.642 354.083 191.717 354.058 191.78 354.013L195.107 351.521C195.145 351.494 195.177 351.459 195.201 351.42C195.226 351.38 195.243 351.337 195.25 351.291C195.258 351.245 195.256 351.198 195.246 351.153C195.235 351.107 195.215 351.065 195.188 351.027C195.173 351.006 195.155 350.988 195.136 350.971L185.636 342.517C185.587 342.474 185.527 342.446 185.463 342.434C185.398 342.422 185.332 342.427 185.271 342.449L179.097 344.653C179.036 344.677 178.981 344.717 178.94 344.769C178.9 344.821 178.873 344.884 178.865 344.949C178.856 345.015 178.866 345.081 178.892 345.142C178.918 345.203 178.961 345.255 179.014 345.294V345.294Z" fill="white"/>
<path d="M227.656 490.214L220.748 490.213L217.462 463.624L227.657 463.624L227.656 490.214Z" fill="#A0616A"/>
<path d="M229.418 496.896L207.144 496.895V496.614C207.144 495.478 207.368 494.353 207.803 493.303C208.239 492.254 208.878 491.3 209.683 490.497C210.488 489.693 211.444 489.056 212.496 488.621C213.547 488.186 214.675 487.963 215.813 487.963H215.814L229.418 487.963L229.418 496.896Z" fill="#2F2E41"/>
<path d="M250.758 490.214L243.85 490.213L240.564 463.624L250.759 463.624L250.758 490.214Z" fill="#A0616A"/>
<path d="M252.52 496.896L230.246 496.895V496.614C230.246 495.478 230.47 494.353 230.906 493.303C231.342 492.254 231.98 491.3 232.785 490.497C233.59 489.693 234.546 489.056 235.598 488.621C236.65 488.186 237.777 487.963 238.916 487.963H238.916L252.521 487.963L252.52 496.896Z" fill="#2F2E41"/>
<path d="M250.442 482.817C250.38 482.817 250.317 482.814 250.254 482.81L242.31 482.223C241.766 482.18 241.249 481.964 240.837 481.607C240.425 481.25 240.138 480.77 240.02 480.238L226.226 404.682C226.181 404.473 226.057 404.289 225.881 404.168C225.705 404.046 225.489 403.996 225.277 404.027C225.065 404.059 224.873 404.169 224.739 404.336C224.606 404.503 224.541 404.715 224.558 404.928L229.456 479.371C229.483 479.719 229.438 480.069 229.323 480.398C229.209 480.728 229.027 481.031 228.79 481.287C228.552 481.543 228.264 481.748 227.944 481.888C227.623 482.027 227.277 482.1 226.928 482.1H220.878C220.368 482.1 219.87 481.946 219.448 481.659C219.027 481.372 218.702 480.965 218.516 480.491C203.302 440.734 208.812 362.834 208.855 362.051L209.419 361.488L239.721 366.709L239.785 366.772C250.139 374.36 254.619 463.232 252.973 480.138C252.963 480.856 252.697 481.547 252.224 482.088C251.749 482.555 251.109 482.817 250.442 482.817Z" fill="#2F2E41"/>
<path d="M212.352 315.918C219.995 315.918 226.191 309.735 226.191 302.108C226.191 294.48 219.995 288.297 212.352 288.297C204.708 288.297 198.512 294.48 198.512 302.108C198.512 309.735 204.708 315.918 212.352 315.918Z" fill="#A0616A"/>
<path d="M244.091 379.54C243.95 379.54 243.81 379.525 243.672 379.497L208.129 374.946C206.857 374.69 205.949 373.335 206.017 371.793L209.419 353.054C204.911 347.431 209.171 332.91 211.925 329.238L210.86 326.361C210.585 325.614 210.569 324.797 210.812 324.04C211.022 323.327 211.502 322.723 212.151 322.359L226.575 314.711C227.854 314.033 229.355 314.727 229.921 316.256L232.75 323.895L232.706 323.918C239.479 327.541 245.481 331.125 240.973 350.243L246.625 376.646C246.606 377.478 246.269 378.272 245.684 378.866C245.262 379.289 244.69 379.531 244.091 379.54Z" fill="#FE9A76"/>
<path d="M193.942 348.586C194.17 348.799 194.379 349.03 194.57 349.276L222.448 347.353L225.439 341.272L235.226 344.576L230.98 355.856C230.637 356.767 230.007 357.543 229.185 358.066C228.362 358.59 227.392 358.833 226.419 358.76L194.719 356.361C194.017 357.333 193.035 358.07 191.904 358.472C190.772 358.874 189.545 358.923 188.385 358.612C187.225 358.301 186.187 357.645 185.41 356.732C184.632 355.818 184.152 354.69 184.033 353.497C183.914 352.304 184.162 351.104 184.743 350.055C185.324 349.006 186.212 348.159 187.288 347.625C188.363 347.092 189.576 346.899 190.765 347.07C191.954 347.242 193.062 347.77 193.942 348.586Z" fill="#A0616A"/>
<path d="M221.945 346.013C221.806 345.676 221.741 345.314 221.755 344.951C221.77 344.588 221.862 344.232 222.027 343.907L227.775 332.577C228.364 330.812 229.63 329.352 231.296 328.517C232.962 327.682 234.891 327.54 236.662 328.123C238.432 328.705 239.899 329.964 240.74 331.624C241.582 333.284 241.73 335.209 241.151 336.978L238.937 349.525C238.874 349.883 238.734 350.224 238.527 350.523C238.32 350.822 238.051 351.074 237.738 351.26C237.425 351.446 237.076 351.563 236.713 351.602C236.351 351.641 235.985 351.602 235.639 351.487L223.488 347.45C223.142 347.336 222.826 347.148 222.559 346.9C222.293 346.652 222.083 346.349 221.945 346.013Z" fill="#FC8B62"/>
<path d="M178.437 336.761C178.322 336.868 178.172 336.927 178.016 336.927C177.859 336.927 177.709 336.868 177.594 336.761L177.271 336.469C174.624 334.046 173.095 332.471 173.095 330.508C173.095 328.906 174.111 327.669 175.703 327.669C176.144 327.671 176.58 327.77 176.979 327.957C177.379 328.144 177.733 328.415 178.017 328.752C178.3 328.415 178.654 328.144 179.053 327.957C179.452 327.77 179.887 327.671 180.328 327.669C181.922 327.669 182.936 328.902 182.936 330.508C182.936 332.467 181.407 334.042 178.76 336.469L178.437 336.761Z" fill="#FF6584"/>
<path d="M159.102 303.177C158.882 303.381 158.594 303.494 158.294 303.494C157.995 303.494 157.706 303.381 157.487 303.177L156.867 302.618C151.795 297.974 148.866 294.956 148.866 291.195C148.866 288.126 150.812 285.755 153.863 285.755C154.709 285.76 155.543 285.948 156.309 286.306C157.074 286.665 157.752 287.185 158.296 287.831C158.84 287.185 159.517 286.665 160.282 286.306C161.046 285.948 161.88 285.76 162.725 285.755C165.78 285.755 167.722 288.118 167.722 291.195C167.722 294.949 164.793 297.966 159.721 302.618L159.102 303.177Z" fill="#FF6584"/>
<path d="M159.906 250.629C159.622 250.893 159.247 251.04 158.858 251.04C158.469 251.04 158.094 250.893 157.809 250.629L157.004 249.902C150.416 243.87 146.612 239.951 146.612 235.065C146.612 231.08 149.14 228 153.103 228C154.201 228.006 155.285 228.251 156.279 228.716C157.273 229.182 158.154 229.857 158.86 230.696C159.566 229.857 160.446 229.182 161.439 228.716C162.432 228.251 163.515 228.006 164.613 228C168.581 228 171.103 231.07 171.103 235.065C171.103 239.941 167.299 243.86 160.711 249.902L159.906 250.629Z" fill="#FF6584"/>
<path d="M395.437 497H32.5635C32.414 497 32.2707 496.941 32.165 496.835C32.0594 496.73 32 496.587 32 496.438C32 496.289 32.0594 496.146 32.165 496.04C32.2707 495.935 32.414 495.875 32.5635 495.875H395.437C395.586 495.875 395.729 495.935 395.835 496.04C395.941 496.146 396 496.289 396 496.438C396 496.587 395.941 496.73 395.835 496.835C395.729 496.941 395.586 497 395.437 497Z" fill="#CCCCCC"/>
<path d="M220.125 291.202C226.349 291.202 231.394 286.167 231.394 279.956C231.394 273.746 226.349 268.711 220.125 268.711C213.901 268.711 208.855 273.746 208.855 279.956C208.855 286.167 213.901 291.202 220.125 291.202Z" fill="#2F2E41"/>
<path d="M199.25 303.815C198.149 303.931 196.978 304.035 195.988 303.542C195.458 303.242 195.007 302.822 194.67 302.315C194.334 301.808 194.121 301.23 194.051 300.626C191.951 286.704 203.814 287.849 205.217 287.246C206.161 286.841 206.856 286.025 207.699 285.439C209.542 284.159 211.934 284.065 214.18 284.017C216.846 283.96 219.609 283.92 222.056 284.978C224.256 286.007 226.084 287.688 227.291 289.793C228.485 291.889 229.36 294.15 229.887 296.503C230.565 299.195 231.027 302.042 230.328 304.728C229.752 306.77 228.55 308.581 226.891 309.908C225.232 311.235 223.199 312.011 221.076 312.127C221.987 308.918 220 305.361 217.052 303.791C214.673 302.624 211.966 302.302 209.379 302.879C207.701 303.219 206 303.43 204.29 303.512C202.612 303.575 200.597 303.673 199.25 303.815Z" fill="#2F2E41"/>
<path d="M380.004 347.068C380.004 319.93 357.943 255.533 330.73 255.533C303.516 255.533 281.456 319.93 281.456 347.068C281.465 360.103 286.661 372.6 295.901 381.814C305.14 391.027 317.668 396.202 330.73 396.202C343.792 396.202 356.319 391.027 365.559 381.814C374.798 372.6 379.994 360.103 380.004 347.068Z" fill="#F2F2F2"/>
<path d="M330.73 496.438C330.581 496.438 330.437 496.378 330.332 496.273C330.226 496.167 330.167 496.024 330.167 495.875V340.605C330.167 340.455 330.226 340.312 330.332 340.207C330.437 340.101 330.581 340.042 330.73 340.042C330.879 340.042 331.023 340.101 331.128 340.207C331.234 340.312 331.293 340.455 331.293 340.605V495.875C331.293 496.024 331.234 496.167 331.128 496.273C331.023 496.378 330.879 496.438 330.73 496.438Z" fill="#CCCCCC"/>
<path d="M330.73 362.051C330.649 362.051 330.57 362.034 330.496 362C330.422 361.967 330.357 361.918 330.304 361.857L301.965 329.244C301.868 329.131 301.819 328.985 301.83 328.836C301.841 328.688 301.91 328.55 302.023 328.452C302.136 328.354 302.283 328.305 302.431 328.316C302.58 328.326 302.719 328.395 302.817 328.507L331.156 361.12C331.226 361.201 331.272 361.301 331.288 361.408C331.303 361.515 331.287 361.624 331.242 361.722C331.198 361.82 331.126 361.903 331.035 361.961C330.944 362.02 330.838 362.051 330.73 362.051Z" fill="#CCCCCC"/>
<path d="M330.73 380.872C330.618 380.872 330.51 380.839 330.417 380.777C330.324 380.715 330.252 380.627 330.209 380.525C330.167 380.422 330.156 380.309 330.177 380.2C330.199 380.091 330.253 379.991 330.331 379.912L346.434 363.843C346.486 363.791 346.548 363.749 346.617 363.721C346.685 363.693 346.758 363.678 346.832 363.678C346.906 363.678 346.98 363.693 347.048 363.721C347.116 363.749 347.178 363.791 347.231 363.843C347.283 363.895 347.325 363.957 347.353 364.025C347.381 364.094 347.396 364.167 347.396 364.24C347.396 364.314 347.381 364.387 347.353 364.456C347.325 364.524 347.283 364.586 347.231 364.638L331.128 380.707C331.076 380.759 331.014 380.801 330.946 380.829C330.877 380.857 330.804 380.872 330.73 380.872Z" fill="#CCCCCC"/>
<path d="M330.73 442.724C330.618 442.724 330.51 442.691 330.417 442.629C330.324 442.567 330.252 442.479 330.209 442.377C330.167 442.274 330.156 442.161 330.177 442.052C330.199 441.943 330.253 441.842 330.331 441.764L346.434 425.695C346.54 425.589 346.683 425.53 346.832 425.53C346.982 425.53 347.125 425.589 347.231 425.695C347.336 425.8 347.396 425.943 347.396 426.092C347.396 426.241 347.336 426.384 347.231 426.49L331.128 442.559C331.076 442.611 331.014 442.653 330.946 442.681C330.877 442.709 330.804 442.724 330.73 442.724Z" fill="#CCCCCC"/>
<path d="M190 266V275.031L187.592 279.847V279.848L187.515 280L181.139 279.583L178.688 279.422L173 279.049V268.247L178.688 268.406L181.232 268.477L187.668 268.657L190 266Z" fill="#FE9A76"/>
<path d="M179 305V310.806L177.583 313.902V313.902L177.538 314L173.788 313.732L172.346 313.628L169 313.389V306.444L172.346 306.547L173.843 306.592L177.628 306.708L179 305Z" fill="#FE9A76"/>
<path opacity="0.1" d="M190 266V274.935L189.511 276.173V276.173L189.01 277.441V277.442L188 280L188.113 270.504L188.136 268.589L189.096 267.255V267.254L189.515 266.673L190 266Z" fill="black"/>
<path d="M190 263.659V266.868L189.67 267.393L189.08 268.332L188.558 269.163L187.403 271L187.376 270.999L172 270.209V267.044L172.039 267.002L173.874 265.018L174.539 264.299L175.741 263L190 263.659Z" fill="#FE9A76"/>
<path d="M179 303.412V305.418L178.798 305.746L178.438 306.332L178.119 306.852L177.413 308L177.396 307.999L168 307.505V305.527L168.024 305.501L169.145 304.261L169.552 303.812L170.286 303L179 303.412Z" fill="#FE9A76"/>
<path opacity="0.1" d="M188 267.833V271L172 270.208V267.042L172.04 267L188 267.833Z" fill="black"/>
<path opacity="0.1" d="M178 306.417V308L168 307.604V306.021L168.025 306L178 306.417Z" fill="black"/>
<path opacity="0.15" d="M190 263V266.497L188 271V267.551L190 263Z" fill="black"/>
<path d="M189 264.811L188.999 266.901L188.998 267.909L188.994 275.81V275.811L188.393 277L188.483 268.715L188.496 267.447V267.446L188.517 265.574L174 264.696L174.655 264L189 264.811Z" fill="#2F2E41"/>
<path d="M179 304.499L178.999 305.785L178.999 306.406L178.996 311.268V311.268L178.595 312L178.655 306.901L178.664 306.121V306.121L178.678 304.969L169 304.428L169.437 304L179 304.499Z" fill="#2F2E41"/>
<path d="M182 265L181.143 267.287L181.135 268.452L181.057 280L179 279.833V267.134L180.098 265H182Z" fill="#2F2E41"/>
<path d="M174 305L173.428 306.372L173.423 307.071L173.371 314L172 313.9V306.281L172.732 305H174Z" fill="#2F2E41"/>
<path d="M178.517 265.367C177.928 265.59 177.294 265.615 176.693 265.44C176.576 265.414 176.466 265.356 176.373 265.272C176.273 265.146 176.204 264.993 176.175 264.827C176.068 264.484 176.009 264.125 176 263.762C176.007 263.4 176.13 263.022 176.39 262.812C176.443 262.776 176.493 262.733 176.539 262.686C176.593 262.608 176.632 262.518 176.653 262.422C176.832 261.818 177.177 261.181 177.732 261.085C178.243 260.995 178.709 261.401 179.103 261.781L179.968 262.616C180.064 262.324 180.236 262.071 180.461 261.891C180.686 261.711 180.954 261.612 181.229 261.608C181.505 261.604 181.775 261.694 182.004 261.867C182.233 262.04 182.411 262.287 182.514 262.577C183.038 261.907 183.699 261.393 184.439 261.079C184.603 261.01 184.795 260.953 184.944 261.057C185.037 261.134 185.107 261.24 185.146 261.363C185.381 261.947 185.509 262.581 185.521 263.223C185.581 263.2 185.647 263.2 185.707 263.223C185.768 263.247 185.82 263.293 185.854 263.354C185.921 263.478 185.96 263.619 185.966 263.764C185.989 263.988 186 264.214 186 264.44C186 264.678 185.98 264.935 185.844 265.115C185.667 265.349 185.362 265.373 185.09 265.381C185.221 265.512 185.157 265.777 185.013 265.888C184.868 266 184.681 266.002 184.507 266C183.834 265.992 183.118 265.971 182.558 265.547C182.337 265.379 182.151 265.157 181.93 264.99C181.386 264.582 180.704 264.563 180.075 264.597C179.508 264.627 179.057 265.162 178.517 265.367Z" fill="#2F2E41"/>
<path d="M172.51 304.62C172.157 304.754 171.777 304.769 171.416 304.664C171.345 304.649 171.279 304.614 171.224 304.563C171.164 304.488 171.123 304.396 171.105 304.296C171.041 304.091 171.006 303.875 171 303.657C171.004 303.44 171.078 303.213 171.234 303.087C171.266 303.065 171.296 303.04 171.323 303.011C171.356 302.965 171.379 302.911 171.392 302.853C171.499 302.491 171.706 302.109 172.039 302.051C172.346 301.997 172.625 302.24 172.862 302.469L173.381 302.97C173.439 302.794 173.542 302.642 173.677 302.534C173.812 302.426 173.972 302.367 174.138 302.365C174.303 302.362 174.465 302.416 174.602 302.52C174.74 302.624 174.847 302.772 174.908 302.946C175.223 302.544 175.619 302.236 176.063 302.047C176.162 302.006 176.277 301.972 176.367 302.034C176.422 302.08 176.464 302.144 176.487 302.218C176.629 302.568 176.705 302.948 176.713 303.334C176.749 303.32 176.788 303.32 176.824 303.334C176.861 303.348 176.892 303.376 176.913 303.412C176.953 303.487 176.976 303.571 176.979 303.658C176.993 303.793 177 303.928 177 304.064C177 304.207 176.988 304.361 176.906 304.469C176.8 304.609 176.617 304.624 176.454 304.628C176.533 304.707 176.494 304.866 176.408 304.933C176.321 305 176.209 305.001 176.104 305C175.7 304.995 175.271 304.982 174.935 304.728C174.802 304.628 174.691 304.494 174.558 304.394C174.232 304.149 173.823 304.138 173.445 304.158C173.105 304.176 172.834 304.497 172.51 304.62Z" fill="#2F2E41"/>
<path d="M178.466 265C178.466 265 172.792 265.771 172 269.114L173.188 268.943L174.023 270.4C174.023 270.4 174.903 267.143 177.499 266.371C180.094 265.6 181.018 265.471 181.018 265.471C181.018 265.471 182.821 265.9 184.449 271L185.372 269.757L187 270.1C187 270.1 185.812 266.114 182.601 265L178.466 265Z" fill="#2F2E41"/>
<path d="M171.88 305C171.88 305 168.475 305.386 168 307.057L168.713 306.971L169.214 307.7C169.214 307.7 169.742 306.071 171.299 305.686C172.856 305.3 173.411 305.236 173.411 305.236C173.411 305.236 174.493 305.45 175.469 308L176.023 307.379L177 307.55C177 307.55 176.287 305.557 174.361 305L171.88 305Z" fill="#2F2E41"/>
</g>
</g>
<defs>
<linearGradient id="paint0_linear_836_3733" x1="25.5" y1="1" x2="25.5" y2="492" gradientUnits="userSpaceOnUse">
<stop stop-color="#FE9A76" stop-opacity="0.25"/>
<stop offset="1" stop-color="#FFF2F2" stop-opacity="0"/>
</linearGradient>
<linearGradient id="paint1_linear_836_3733" x1="438.5" y1="2" x2="438.5" y2="185" gradientUnits="userSpaceOnUse">
<stop stop-color="#FE9A76" stop-opacity="0.25"/>
<stop offset="1" stop-color="#FFF2F2" stop-opacity="0"/>
</linearGradient>
<clipPath id="clip0_836_3733">
<rect width="428" height="500" fill="white"/>
</clipPath>
<clipPath id="clip1_836_3733">
<rect width="364" height="269" fill="white" transform="translate(32 228)"/>
</clipPath>
</defs>
</svg>
