<svg width="428" height="500" viewBox="0 0 428 500" fill="none" xmlns="http://www.w3.org/2000/svg">
<g clip-path="url(#clip0_836_3144)">
<ellipse cx="14.5" cy="92.2639" rx="91.5" ry="92.0046" fill="url(#paint0_linear_836_3144)"/>
<ellipse cx="62.5" cy="256.163" rx="32.5" ry="32.6792" fill="url(#paint1_linear_836_3144)"/>
<circle cx="453.5" cy="246.5" r="245.5" fill="url(#paint2_linear_836_3144)"/>
<g clip-path="url(#clip1_836_3144)">
<path d="M139.426 405.536C160.667 405.536 177.886 388.332 177.886 367.109C177.886 345.887 160.667 328.683 139.426 328.683C118.185 328.683 100.965 345.887 100.965 367.109C100.965 388.332 118.185 405.536 139.426 405.536Z" fill="#E6E6E6"/>
<path d="M129.034 423.223L138.495 429.08V389.486L127.891 382.921C127.014 382.378 126.373 381.526 126.096 380.534V380.534C127.109 380.34 128.158 380.534 129.034 381.077L138.495 386.935V371.581C138.495 368.611 138.86 365.652 139.581 362.771C140.302 365.652 140.666 368.611 140.666 371.581V396.641L154.624 387.999C155.738 387.309 157.028 386.954 158.338 386.975C157.774 388.158 156.882 389.153 155.767 389.843L140.666 399.193V492.828H138.495V431.632L127.891 425.067C127.014 424.524 126.373 423.672 126.096 422.679V422.679C127.109 422.486 128.158 422.68 129.034 423.223Z" fill="#CCCCCC"/>
<path d="M82.4606 408.799C103.702 408.799 120.921 391.594 120.921 370.372C120.921 349.149 103.702 331.945 82.4606 331.945C61.2194 331.945 44 349.149 44 370.372C44 391.594 61.2194 408.799 82.4606 408.799Z" fill="#E6E6E6"/>
<path d="M92.852 426.485L83.3912 432.343V392.749L93.9956 386.184C94.8723 385.641 95.5129 384.789 95.7905 383.796V383.796C94.7775 383.603 93.7286 383.797 92.8519 384.34L83.3911 390.197V374.844C83.3911 371.874 83.0266 368.915 82.3056 366.033C81.5846 368.915 81.22 371.874 81.22 374.844V399.903L67.2627 391.262C66.1483 390.572 64.8588 390.217 63.5479 390.238C64.1121 391.42 65.0046 392.416 66.1191 393.106L81.22 402.455V493.035H83.3912V434.895L93.9956 428.329C94.8723 427.786 95.5129 426.934 95.7905 425.942V425.942C94.7775 425.749 93.7287 425.943 92.852 426.485V426.485Z" fill="#CCCCCC"/>
<path d="M110.399 356.322C146.971 356.322 176.618 326.701 176.618 290.161C176.618 253.621 146.971 224 110.399 224C73.8271 224 44.1797 253.621 44.1797 290.161C44.1797 326.701 73.8271 356.322 110.399 356.322Z" fill="#E6E6E6"/>
<path d="M128.29 386.774L112.001 396.859V328.689L130.259 317.385C131.769 316.451 132.872 314.984 133.35 313.275L133.35 313.275H133.35C131.605 312.942 129.8 313.276 128.29 314.21L112.001 324.295V297.861C112.001 292.747 111.373 287.653 110.132 282.691C108.891 287.653 108.263 292.747 108.263 297.861V341.007L84.232 326.129C82.3132 324.941 80.093 324.329 77.8359 324.365C78.8075 326.401 80.3442 328.115 82.263 329.303L108.263 345.4V493.18H112.001V401.253L130.259 389.949C131.769 389.014 132.872 387.547 133.35 385.839L133.35 385.839H133.35C131.605 385.506 129.8 385.84 128.29 386.774V386.774Z" fill="#CCCCCC"/>
<path d="M383 492.828H70.4102V493.619H383V492.828Z" fill="#9E9DA6"/>
<path d="M302.496 343.365L286.982 352.314L295.939 367.815L311.453 358.866L302.496 343.365Z" fill="#FF6584"/>
<path d="M302.693 371.046L293.34 354.86L309.54 345.516L318.893 361.701L302.693 371.046ZM294.421 355.15L302.983 369.966L317.812 361.412L309.25 346.596L294.421 355.15Z" fill="#2F2E41"/>
<path d="M288.18 414.539C292.332 414.539 295.698 411.176 295.698 407.028C295.698 402.88 292.332 399.517 288.18 399.517C284.028 399.517 280.662 402.88 280.662 407.028C280.662 411.176 284.028 414.539 288.18 414.539Z" fill="#D0CDE1"/>
<path d="M293.719 414.935C292.154 414.935 290.624 414.471 289.322 413.602C288.021 412.733 287.007 411.498 286.408 410.054C285.809 408.609 285.652 407.019 285.957 405.485C286.263 403.952 287.016 402.543 288.123 401.437C289.23 400.331 290.64 399.578 292.175 399.273C293.71 398.968 295.301 399.125 296.747 399.723C298.193 400.321 299.429 401.335 300.299 402.635C301.168 403.935 301.633 405.464 301.633 407.028C301.633 409.125 300.799 411.136 299.315 412.619C297.831 414.102 295.818 414.935 293.719 414.935V414.935ZM293.719 399.912C292.31 399.912 290.933 400.329 289.762 401.111C288.591 401.893 287.678 403.004 287.139 404.305C286.6 405.605 286.459 407.036 286.733 408.416C287.008 409.796 287.687 411.064 288.683 412.06C289.679 413.055 290.948 413.733 292.329 414.007C293.711 414.282 295.143 414.141 296.444 413.602C297.746 413.064 298.858 412.151 299.641 410.981C300.423 409.811 300.841 408.435 300.841 407.028C300.841 405.141 300.091 403.331 298.755 401.996C297.419 400.662 295.608 399.912 293.719 399.912V399.912Z" fill="#2F2E41"/>
<path d="M335.607 494.626H262.801C261.909 494.625 261.054 494.271 260.424 493.641C259.793 493.011 259.439 492.157 259.438 491.266V423.664C259.439 422.773 259.793 421.919 260.424 421.289C261.054 420.659 261.909 420.304 262.801 420.303H335.607C336.498 420.304 337.353 420.659 337.984 421.289C338.614 421.919 338.969 422.773 338.97 423.664V491.266C338.969 492.157 338.614 493.011 337.984 493.641C337.353 494.271 336.498 494.625 335.607 494.626V494.626Z" fill="#FE9A76"/>
<path d="M304.347 497H294.06C293.168 496.999 292.313 496.645 291.683 496.015C291.052 495.385 290.697 494.53 290.696 493.64V421.655C290.697 420.764 291.052 419.91 291.683 419.28C292.313 418.65 293.168 418.296 294.06 418.295H304.347C305.239 418.296 306.094 418.65 306.724 419.28C307.355 419.91 307.71 420.764 307.711 421.655V493.64C307.71 494.53 307.355 495.385 306.724 496.015C306.094 496.645 305.239 496.999 304.347 497V497Z" fill="#3F3D56"/>
<path d="M354.95 413.612C354.525 420.585 345.096 425.686 345.096 425.686C345.096 425.686 336.357 419.479 336.783 412.505C337.208 405.532 346.637 400.431 346.637 400.431C346.637 400.431 355.376 406.638 354.95 413.612Z" fill="#3F3D56"/>
<path d="M355.377 435.37C348.396 434.967 343.262 425.563 343.262 425.563C343.262 425.563 349.446 416.812 356.428 417.215C363.409 417.618 368.543 427.023 368.543 427.023C368.543 427.023 362.359 435.774 355.377 435.37Z" fill="#3F3D56"/>
<path opacity="0.1" d="M338.772 428.574V454.381L313.08 420.501H332.651L338.772 428.574Z" fill="black"/>
<path d="M360.583 472.751C360.063 472.752 359.55 472.632 359.084 472.401C358.618 472.171 358.212 471.835 357.898 471.421L304.373 400.837C304.106 400.486 303.911 400.085 303.799 399.658C303.688 399.231 303.661 398.786 303.721 398.349C303.782 397.912 303.928 397.491 304.151 397.11C304.374 396.729 304.67 396.396 305.022 396.13L312.907 390.161C313.259 389.894 313.66 389.7 314.087 389.588C314.515 389.477 314.96 389.45 315.397 389.511C315.835 389.571 316.256 389.717 316.637 389.94C317.018 390.163 317.352 390.459 317.618 390.81L371.144 461.394C371.411 461.745 371.606 462.146 371.717 462.573C371.829 463 371.856 463.445 371.795 463.882C371.735 464.319 371.589 464.74 371.366 465.121C371.143 465.502 370.847 465.835 370.495 466.101L362.61 472.07C362.027 472.512 361.315 472.751 360.583 472.751V472.751Z" fill="#FC8B62"/>
<path d="M339.158 417.904L325.597 428.17L335.872 441.72L349.433 431.454L339.158 417.904Z" fill="#3F3D56"/>
<path d="M269.396 366.271L264.759 383.56L282.063 388.192L286.7 370.903L269.396 366.271Z" fill="#D0CDE1"/>
<path d="M274.722 390.776L256.654 385.939L261.496 367.887L279.564 372.724L274.722 390.776ZM257.623 385.38L274.163 389.808L278.595 373.283L262.055 368.855L257.623 385.38Z" fill="#2F2E41"/>
<path d="M198.613 432.737C199.088 432.282 199.458 431.728 199.696 431.115C199.934 430.502 200.035 429.844 199.991 429.187C199.947 428.531 199.76 427.892 199.442 427.316C199.124 426.74 198.684 426.24 198.152 425.852L190.886 367.331L181.498 370.12L191.633 427.071C191.04 428.007 190.812 429.128 190.991 430.221C191.17 431.314 191.744 432.303 192.604 433.002C193.465 433.7 194.551 434.059 195.659 434.01C196.766 433.961 197.817 433.508 198.613 432.737Z" fill="#FFB8B8"/>
<path d="M207.315 488.673H212.806L215.419 467.512H207.315V488.673Z" fill="#FFB8B8"/>
<path d="M223.396 493.767H206.138V487.105H217.338C218.945 487.105 220.485 487.743 221.621 488.878C222.757 490.013 223.396 491.553 223.396 493.158V493.767V493.767Z" fill="#2F2E41"/>
<path d="M169.344 480.128L174.491 482.041L184.324 463.118L176.728 460.295L169.344 480.128Z" fill="#FFB8B8"/>
<path d="M182.638 490.504L166.464 484.493L168.788 478.249L179.285 482.15C180.791 482.71 182.013 483.844 182.681 485.304C183.35 486.763 183.411 488.428 182.851 489.933L182.638 490.504L182.638 490.504Z" fill="#2F2E41"/>
<path d="M197.465 352.139C203.199 352.139 207.847 347.495 207.847 341.766C207.847 336.037 203.199 331.393 197.465 331.393C191.731 331.393 187.083 336.037 187.083 341.766C187.083 347.495 191.731 352.139 197.465 352.139Z" fill="#FFB8B8"/>
<path d="M181.226 368.388C180.901 358.834 190.951 352.206 199.408 356.679C200.485 357.249 211.61 366.692 212.029 372.556C212.448 378.42 213.287 388.054 213.287 388.054L225.025 475.599L199.871 474.342L202.909 448.804L186.558 474.774L166.751 468.478L191.067 398.526C191.067 398.526 181.719 382.868 181.226 368.388Z" fill="#2F2E41"/>
<path d="M181.424 371.714L183.039 392.694C183.056 392.913 183.155 393.118 183.316 393.267C183.478 393.417 183.69 393.5 183.91 393.5H191.017C191.16 393.5 191.302 393.464 191.428 393.397C191.555 393.329 191.663 393.231 191.743 393.112C191.822 392.992 191.871 392.855 191.885 392.712C191.899 392.569 191.878 392.425 191.823 392.293L183.1 371.313C183.021 371.121 182.875 370.964 182.69 370.87C182.505 370.776 182.293 370.751 182.091 370.799C181.889 370.848 181.711 370.966 181.589 371.134C181.466 371.302 181.408 371.508 181.424 371.714V371.714Z" fill="#2F2E41"/>
<path d="M217.922 429.102C218.341 428.594 218.643 428.001 218.808 427.364C218.973 426.727 218.996 426.062 218.875 425.415C218.755 424.768 218.494 424.156 218.11 423.621C217.727 423.086 217.232 422.641 216.658 422.318L202.587 365.049L193.59 368.916L210.326 424.291C209.847 425.29 209.752 426.43 210.058 427.494C210.363 428.559 211.049 429.474 211.986 430.067C212.922 430.66 214.043 430.889 215.138 430.711C216.232 430.534 217.222 429.961 217.922 429.102V429.102Z" fill="#FFB8B8"/>
<path d="M194.84 359.99C194.84 359.99 191.905 365.854 194.84 376.326C197.775 386.798 199.871 395.594 199.871 395.594C199.871 395.594 206.579 391.405 209.513 392.662C212.448 393.919 204.871 364.747 204.871 364.747C204.871 364.747 200.29 354.964 194.84 359.99Z" fill="#2F2E41"/>
<path d="M199.901 343.384C200.042 341.232 202.759 341.158 204.918 341.138C207.077 341.117 209.658 341.194 210.879 339.416C211.687 338.241 211.532 336.609 210.865 335.349C210.199 334.089 209.102 333.119 208.022 332.187C205.236 329.78 202.365 327.392 199.02 325.851C195.675 324.311 191.755 323.688 188.286 324.925C184.024 326.444 178.263 334.265 177.766 338.758C177.268 343.252 179.066 347.832 182.095 351.19C185.125 354.548 192.059 353.193 196.423 354.387C193.77 350.636 195.519 343.819 199.769 342.067L199.901 343.384Z" fill="#2F2E41"/>
</g>
</g>
<defs>
<linearGradient id="paint0_linear_836_3144" x1="14.5" y1="0.259277" x2="14.5" y2="184.268" gradientUnits="userSpaceOnUse">
<stop stop-color="#FE9A76" stop-opacity="0.25"/>
<stop offset="1" stop-color="#FFF2F2" stop-opacity="0"/>
</linearGradient>
<linearGradient id="paint1_linear_836_3144" x1="62.5" y1="223.483" x2="62.5" y2="288.842" gradientUnits="userSpaceOnUse">
<stop stop-color="#FE9A76" stop-opacity="0.25"/>
<stop offset="1" stop-color="#FFF2F2" stop-opacity="0"/>
</linearGradient>
<linearGradient id="paint2_linear_836_3144" x1="453.5" y1="1" x2="453.5" y2="492" gradientUnits="userSpaceOnUse">
<stop stop-color="#FE9A76" stop-opacity="0.25"/>
<stop offset="1" stop-color="#FFF2F2" stop-opacity="0"/>
</linearGradient>
<clipPath id="clip0_836_3144">
<rect width="428" height="500" fill="white"/>
</clipPath>
<clipPath id="clip1_836_3144">
<rect width="339" height="273" fill="white" transform="translate(44 224)"/>
</clipPath>
</defs>
</svg>
