<svg width="428" height="500" viewBox="0 0 428 500" fill="none" xmlns="http://www.w3.org/2000/svg">
<g clip-path="url(#clip0_836_3345)">
<circle cx="25.5" cy="246.5" r="245.5" fill="url(#paint0_linear_836_3345)"/>
<circle cx="442.5" cy="94.5" r="91.5" fill="url(#paint1_linear_836_3345)"/>
<g clip-path="url(#clip1_836_3345)">
<path d="M234.773 296.584C234.483 295.632 233.921 294.787 233.157 294.151C232.393 293.515 231.459 293.117 230.471 293.005C230.448 293.003 230.425 293.003 230.402 293.005C230.374 292.996 230.346 292.99 230.317 292.985C226.874 292.539 223.045 293.625 220.469 295.99C219.512 296.855 218.747 297.91 218.223 299.088C217.745 298.435 217.116 297.909 216.389 297.554C215.662 297.2 214.86 297.028 214.052 297.054C213.01 297.122 212.014 297.511 211.201 298.167C210.387 298.822 209.796 299.713 209.507 300.717C209.475 300.84 209.484 300.969 209.532 301.087C209.58 301.204 209.664 301.303 209.773 301.368C210.083 301.633 210.451 301.821 210.847 301.915C211.699 302.096 212.557 302.262 213.416 302.412C215.096 302.705 216.784 302.942 218.481 303.125C219.602 303.244 220.725 303.339 221.851 303.41C224.178 303.556 226.516 303.591 228.846 303.518C230.001 303.479 231.111 303.441 232.166 302.932C232.935 302.554 233.592 301.982 234.072 301.272C234.525 300.589 234.822 299.815 234.943 299.005C235.064 298.195 235.006 297.369 234.773 296.584Z" fill="#E6E6E6"/>
<path d="M213.617 311.569C213.597 311.138 213.525 310.711 213.401 310.298C213.11 309.347 212.547 308.502 211.782 307.866C211.017 307.23 210.083 306.832 209.095 306.719C209.073 306.717 209.051 306.717 209.03 306.719C209 306.711 208.971 306.704 208.941 306.7C207.035 306.466 205.101 306.665 203.283 307.282C200.487 308.218 198.033 310.105 196.851 312.802C196.373 312.149 195.743 311.622 195.015 311.268C194.287 310.914 193.485 310.742 192.676 310.768C191.633 310.837 190.638 311.226 189.824 311.881C189.011 312.537 188.42 313.427 188.131 314.432C188.101 314.554 188.11 314.683 188.158 314.8C188.206 314.917 188.289 315.016 188.397 315.083C188.707 315.347 189.075 315.534 189.471 315.63C190.326 315.811 191.181 315.976 192.044 316.127C193.723 316.419 195.41 316.657 197.105 316.839C200.548 317.209 204.012 317.34 207.473 317.232C208.625 317.194 209.738 317.155 210.794 316.647C211.561 316.268 212.217 315.696 212.696 314.986C213.371 313.98 213.695 312.779 213.617 311.569Z" fill="#E6E6E6"/>
<path d="M347.555 436.381C347.702 443.394 346.735 450.387 344.688 457.096C344.616 457.34 344.53 457.583 344.444 457.827H302.249C302.852 454.856 303.809 451.968 305.101 449.226C308.612 441.771 314.345 435.392 320.007 429.055C327.804 420.325 335.415 411.666 336.619 400.312C339.709 405.025 342.176 410.118 343.957 415.465C341.777 416.273 339.775 417.5 338.066 419.078C337.593 419.522 337.092 420.167 337.335 420.784C337.565 421.3 338.195 421.472 338.754 421.586C340.102 421.844 341.449 422.102 342.796 422.346C343.857 422.561 344.932 422.762 346.007 422.963C346.952 427.375 347.47 431.869 347.555 436.381Z" fill="#F2F2F2"/>
<path d="M383 431.736C376.235 435.851 371.935 442.216 368.424 449.34C365.368 450.037 362.547 451.519 360.24 453.641C359.752 454.086 359.251 454.731 359.509 455.347C359.724 455.863 360.369 456.035 360.927 456.15C362.26 456.408 363.622 456.666 364.955 456.91C364.826 457.211 364.697 457.526 364.568 457.827H319.85C321.88 455.089 324.128 452.519 326.572 450.143C327.102 449.613 327.647 449.111 328.206 448.595C333.906 443.442 340.452 439.31 347.555 436.381C358.745 431.702 370.982 430.098 383 431.736Z" fill="#F2F2F2"/>
<path d="M327.303 457.827H287.486C287.268 454.638 287.288 451.437 287.543 448.251C289.134 428.568 299.841 409.817 315.994 398.463C313.93 405.817 314.991 413.128 317.14 420.468C316.84 420.569 316.539 420.655 316.266 420.769C314.086 421.577 312.084 422.805 310.375 424.382C309.902 424.826 309.401 425.471 309.644 426.088C309.859 426.604 310.504 426.776 311.063 426.891C312.411 427.149 313.758 427.407 315.091 427.65C316.166 427.865 317.241 428.066 318.316 428.281C318.817 428.367 319.319 428.468 319.821 428.568C319.892 428.74 319.935 428.898 320.007 429.055C322.53 436.008 325.282 443.018 326.571 450.143C326.891 451.931 327.111 453.735 327.231 455.548C327.274 456.308 327.303 457.067 327.303 457.827Z" fill="#F2F2F2"/>
<path d="M110.298 436.381C110.446 443.394 109.478 450.387 107.431 457.096C107.36 457.34 107.274 457.583 107.188 457.827H64.9917C65.5949 454.856 66.5525 451.968 67.844 449.226C71.3555 441.771 77.0886 435.392 82.7501 429.055C90.5472 420.325 98.1579 411.666 99.3619 400.312C102.453 405.025 104.919 410.118 106.7 415.465C104.52 416.273 102.518 417.5 100.81 419.078C100.337 419.522 99.8349 420.167 100.079 420.784C100.308 421.3 100.939 421.472 101.498 421.586C102.845 421.844 104.192 422.102 105.539 422.346C106.6 422.561 107.675 422.762 108.75 422.963C109.695 427.375 110.213 431.869 110.298 436.381Z" fill="#F2F2F2"/>
<path d="M145.743 431.736C138.978 435.851 134.678 442.216 131.167 449.34C128.111 450.037 125.29 451.519 122.983 453.641C122.495 454.086 121.994 454.731 122.252 455.347C122.467 455.863 123.112 456.035 123.671 456.15C125.004 456.408 126.365 456.666 127.698 456.91C127.569 457.211 127.44 457.526 127.311 457.827H82.5928C84.6228 455.089 86.8708 452.519 89.3149 450.143C89.8452 449.613 90.3899 449.111 90.9489 448.595C96.6493 443.442 103.195 439.31 110.298 436.381C121.489 431.702 133.726 430.098 145.743 431.736Z" fill="#F2F2F2"/>
<path d="M90.0457 457.827H50.229C50.0115 454.638 50.0307 451.437 50.2864 448.251C51.8773 428.568 62.5839 409.817 78.737 398.463C76.6731 405.817 77.7337 413.128 79.8836 420.468C79.5827 420.569 79.2817 420.655 79.0094 420.769C76.8288 421.577 74.8275 422.805 73.1186 424.382C72.6456 424.826 72.144 425.471 72.3876 426.088C72.6025 426.604 73.2475 426.776 73.8065 426.891C75.1538 427.149 76.5011 427.407 77.834 427.65C78.909 427.865 79.984 428.066 81.0589 428.281C81.5605 428.367 82.0623 428.468 82.5639 428.568C82.6355 428.74 82.6786 428.898 82.7502 429.055C85.2728 436.008 88.0247 443.018 89.3147 450.143C89.634 451.931 89.8541 453.735 89.974 455.548C90.017 456.308 90.0457 457.067 90.0457 457.827Z" fill="#F2F2F2"/>
<path d="M238.277 441.107L273.854 444.266L274.236 444.301V292.464C274.109 292.376 273.981 292.287 273.854 292.198C266.44 287.011 258.419 282.75 249.971 279.509L248.153 304.588L247.987 306.884L246.188 331.754L245.634 339.405L238.343 440.221L238.277 441.107Z" fill="#E6E6E6"/>
<path d="M150.296 289.637C150.042 289.798 149.787 289.96 149.533 290.13V444.301L150.296 444.231L185.488 441.107L185.422 440.221L178.131 339.405L177.576 331.754L175.778 306.884L175.612 304.588L173.706 278.288C165.484 281.138 157.626 284.947 150.296 289.637Z" fill="#E6E6E6"/>
<path d="M149.533 290.13C149.021 290.461 148.508 290.8 148.004 291.143V446.404C148.004 450.283 150.303 453.535 153.377 454.363C153.879 454.499 154.397 454.568 154.917 454.567H269.232C269.751 454.568 270.268 454.499 270.769 454.363C271.911 454.046 272.947 453.426 273.765 452.568C275.327 450.899 276.18 448.689 276.146 446.404V293.843C275.514 293.377 274.879 292.915 274.235 292.464C274.108 292.376 273.981 292.287 273.854 292.199V446.404C273.855 446.904 273.795 447.402 273.677 447.887C273.134 450.179 271.343 451.859 269.232 451.859H154.917C152.368 451.859 150.296 449.413 150.296 446.404V289.637C150.041 289.799 149.787 289.96 149.533 290.13Z" fill="#E6E6E6"/>
<path d="M275 304.589H149.149V306.885H275V304.589Z" fill="#E6E6E6"/>
<path d="M236.455 275.306C235.693 275.117 234.93 274.94 234.16 274.774V337.109H236.455V275.306Z" fill="#E6E6E6"/>
<path d="M189.99 274C189.223 274.143 188.457 274.289 187.694 274.447V337.109H189.99V274Z" fill="#E6E6E6"/>
<path d="M124.475 450.549C124.474 451.866 124.726 453.172 125.218 454.394C125.407 454.868 125.632 455.326 125.892 455.765C126.228 456.338 126.617 456.877 127.055 457.375C128.023 458.478 129.215 459.362 130.551 459.967C131.887 460.572 133.338 460.885 134.805 460.885H285.52C288.26 460.885 290.887 459.796 292.825 457.859C294.762 455.921 295.85 453.293 295.85 450.553C295.85 447.813 294.762 445.185 292.825 443.247C290.887 441.309 288.26 440.221 285.52 440.221H134.805C132.066 440.224 129.441 441.313 127.505 443.249C125.568 445.185 124.478 447.81 124.475 450.549Z" fill="#E6E6E6"/>
<path d="M149.149 339.406H274.235V331.754H149.149V339.406Z" fill="#E6E6E6"/>
<path d="M217.047 333.667H206.337C206.337 332.551 206.78 331.48 207.569 330.691C208.358 329.902 209.428 329.458 210.544 329.458H212.84C213.392 329.458 213.939 329.567 214.45 329.779C214.96 329.99 215.424 330.3 215.815 330.691C216.206 331.082 216.516 331.546 216.727 332.056C216.938 332.567 217.047 333.114 217.047 333.667H217.047Z" fill="#E6E6E6"/>
<path d="M44 456.451C47.346 460.416 50.965 464.143 54.8306 467.603H365.491C369.356 464.143 372.975 460.416 376.321 456.451H44Z" fill="#3F3D56"/>
<path d="M196.788 419.156V458.666H224.462V419.156C224.462 418.872 224.371 418.596 224.203 418.367C224.035 418.138 223.797 417.969 223.526 417.885C223.398 417.843 223.264 417.822 223.129 417.824H198.125C197.949 417.823 197.776 417.857 197.614 417.924C197.452 417.991 197.304 418.089 197.18 418.213C197.056 418.337 196.957 418.484 196.89 418.646C196.823 418.808 196.788 418.981 196.788 419.156ZM207.588 432.732C207.595 431.953 207.91 431.209 208.463 430.661C209.016 430.113 209.763 429.805 210.542 429.805C211.321 429.805 212.068 430.113 212.621 430.661C213.174 431.209 213.489 431.953 213.496 432.732V437.316C213.492 438.097 213.179 438.845 212.626 439.396C212.072 439.947 211.323 440.256 210.542 440.256C209.761 440.256 209.012 439.947 208.458 439.396C207.905 438.845 207.592 438.097 207.588 437.316V432.732Z" fill="#2F2E41"/>
<path d="M196.703 457.403V461.213C196.704 461.41 196.782 461.599 196.921 461.739C197.06 461.879 197.249 461.958 197.446 461.96H223.803C224 461.959 224.189 461.88 224.329 461.74C224.468 461.6 224.546 461.41 224.546 461.213V457.403H196.703Z" fill="#3F3D56"/>
<path d="M153.254 359.63V431.769C153.255 432.688 153.62 433.57 154.27 434.22C154.92 434.87 155.801 435.235 156.72 435.236H263.601C264.521 435.235 265.402 434.87 266.052 434.22C266.702 433.57 267.067 432.688 267.068 431.769V359.63C267.066 358.711 266.7 357.831 266.05 357.182C265.4 356.533 264.52 356.168 263.601 356.167H156.72C155.802 356.168 154.922 356.533 154.272 357.182C153.622 357.831 153.256 358.711 153.254 359.63Z" fill="#3F3D56"/>
<path d="M155.761 360.527V430.879C155.762 431.37 155.958 431.841 156.305 432.188C156.652 432.536 157.123 432.731 157.614 432.732H262.712C263.203 432.731 263.673 432.536 264.021 432.188C264.368 431.841 264.563 431.37 264.564 430.879V360.527C264.564 360.036 264.369 359.564 264.022 359.216C263.675 358.868 263.203 358.672 262.712 358.671H157.614C157.122 358.672 156.651 358.868 156.304 359.216C155.956 359.564 155.761 360.036 155.761 360.527Z" fill="#FE9A76"/>
<path d="M177.191 462.858C177.298 462.992 177.434 463.1 177.589 463.174C177.744 463.248 177.913 463.286 178.085 463.285H240.611C240.782 463.285 240.951 463.247 241.105 463.173C241.26 463.099 241.396 462.992 241.503 462.859C241.611 462.726 241.688 462.571 241.728 462.405C241.768 462.239 241.771 462.066 241.736 461.898L240.765 457.287C240.725 457.099 240.639 456.924 240.513 456.778C240.388 456.632 240.229 456.52 240.049 456.451C239.919 456.4 239.78 456.374 239.641 456.374H179.052C178.912 456.374 178.773 456.4 178.643 456.451C178.464 456.52 178.304 456.632 178.179 456.778C178.054 456.924 177.967 457.099 177.927 457.287L176.956 461.898C176.922 462.066 176.925 462.238 176.966 462.404C177.006 462.57 177.083 462.725 177.191 462.858Z" fill="#2F2E41"/>
<path d="M237.459 458.36H239.008C239.112 458.36 239.196 458.276 239.196 458.172V457.392C239.196 457.289 239.112 457.204 239.008 457.204H237.459C237.355 457.204 237.271 457.289 237.271 457.392V458.172C237.271 458.276 237.355 458.36 237.459 458.36Z" fill="#3F3D56"/>
<path d="M233.607 458.36H235.157C235.261 458.36 235.345 458.276 235.345 458.172V457.392C235.345 457.289 235.261 457.204 235.157 457.204H233.607C233.503 457.204 233.419 457.289 233.419 457.392V458.172C233.419 458.276 233.503 458.36 233.607 458.36Z" fill="#3F3D56"/>
<path d="M229.755 458.36H231.305C231.409 458.36 231.493 458.276 231.493 458.172V457.392C231.493 457.289 231.409 457.204 231.305 457.204H229.755C229.652 457.204 229.567 457.289 229.567 457.392V458.172C229.567 458.276 229.652 458.36 229.755 458.36Z" fill="#3F3D56"/>
<path d="M225.904 458.36H227.454C227.557 458.36 227.642 458.276 227.642 458.172V457.392C227.642 457.289 227.557 457.204 227.454 457.204H225.904C225.8 457.204 225.716 457.289 225.716 457.392V458.172C225.716 458.276 225.8 458.36 225.904 458.36Z" fill="#3F3D56"/>
<path d="M222.052 458.36H223.602C223.706 458.36 223.79 458.276 223.79 458.172V457.392C223.79 457.289 223.706 457.204 223.602 457.204H222.052C221.948 457.204 221.864 457.289 221.864 457.392V458.172C221.864 458.276 221.948 458.36 222.052 458.36Z" fill="#3F3D56"/>
<path d="M218.201 458.36H219.75C219.854 458.36 219.938 458.276 219.938 458.172V457.392C219.938 457.289 219.854 457.204 219.75 457.204H218.201C218.097 457.204 218.013 457.289 218.013 457.392V458.172C218.013 458.276 218.097 458.36 218.201 458.36Z" fill="#3F3D56"/>
<path d="M214.349 458.36H215.899C216.003 458.36 216.087 458.276 216.087 458.172V457.392C216.087 457.289 216.003 457.204 215.899 457.204H214.349C214.245 457.204 214.161 457.289 214.161 457.392V458.172C214.161 458.276 214.245 458.36 214.349 458.36Z" fill="#3F3D56"/>
<path d="M210.498 458.36H212.047C212.151 458.36 212.235 458.276 212.235 458.172V457.392C212.235 457.289 212.151 457.204 212.047 457.204H210.498C210.394 457.204 210.31 457.289 210.31 457.392V458.172C210.31 458.276 210.394 458.36 210.498 458.36Z" fill="#3F3D56"/>
<path d="M206.646 458.36H208.196C208.3 458.36 208.384 458.276 208.384 458.172V457.392C208.384 457.289 208.3 457.204 208.196 457.204H206.646C206.542 457.204 206.458 457.289 206.458 457.392V458.172C206.458 458.276 206.542 458.36 206.646 458.36Z" fill="#3F3D56"/>
<path d="M202.794 458.36H204.344C204.448 458.36 204.532 458.276 204.532 458.172V457.392C204.532 457.289 204.448 457.204 204.344 457.204H202.794C202.691 457.204 202.606 457.289 202.606 457.392V458.172C202.606 458.276 202.691 458.36 202.794 458.36Z" fill="#3F3D56"/>
<path d="M198.943 458.36H200.493C200.596 458.36 200.681 458.276 200.681 458.172V457.392C200.681 457.289 200.596 457.204 200.493 457.204H198.943C198.839 457.204 198.755 457.289 198.755 457.392V458.172C198.755 458.276 198.839 458.36 198.943 458.36Z" fill="#3F3D56"/>
<path d="M195.091 458.36H196.641C196.745 458.36 196.829 458.276 196.829 458.172V457.392C196.829 457.289 196.745 457.204 196.641 457.204H195.091C194.987 457.204 194.903 457.289 194.903 457.392V458.172C194.903 458.276 194.987 458.36 195.091 458.36Z" fill="#3F3D56"/>
<path d="M191.24 458.36H192.789C192.893 458.36 192.978 458.276 192.978 458.172V457.392C192.978 457.289 192.893 457.204 192.789 457.204H191.24C191.136 457.204 191.052 457.289 191.052 457.392V458.172C191.052 458.276 191.136 458.36 191.24 458.36Z" fill="#3F3D56"/>
<path d="M187.388 458.36H188.938C189.042 458.36 189.126 458.276 189.126 458.172V457.392C189.126 457.289 189.042 457.204 188.938 457.204H187.388C187.284 457.204 187.2 457.289 187.2 457.392V458.172C187.2 458.276 187.284 458.36 187.388 458.36Z" fill="#3F3D56"/>
<path d="M183.537 458.36H185.086C185.19 458.36 185.274 458.276 185.274 458.172V457.392C185.274 457.289 185.19 457.204 185.086 457.204H183.537C183.433 457.204 183.349 457.289 183.349 457.392V458.172C183.349 458.276 183.433 458.36 183.537 458.36Z" fill="#3F3D56"/>
<path d="M179.685 458.36H181.235C181.339 458.36 181.423 458.276 181.423 458.172V457.392C181.423 457.289 181.339 457.204 181.235 457.204H179.685C179.581 457.204 179.497 457.289 179.497 457.392V458.172C179.497 458.276 179.581 458.36 179.685 458.36Z" fill="#3F3D56"/>
<path d="M237.504 460.286H239.054C239.158 460.286 239.242 460.202 239.242 460.098V459.319C239.242 459.215 239.158 459.131 239.054 459.131H237.504C237.401 459.131 237.316 459.215 237.316 459.319V460.098C237.316 460.202 237.401 460.286 237.504 460.286Z" fill="#3F3D56"/>
<path d="M233.653 460.286H235.203C235.306 460.286 235.391 460.202 235.391 460.098V459.319C235.391 459.215 235.306 459.131 235.203 459.131H233.653C233.549 459.131 233.465 459.215 233.465 459.319V460.098C233.465 460.202 233.549 460.286 233.653 460.286Z" fill="#3F3D56"/>
<path d="M229.801 460.286H231.351C231.455 460.286 231.539 460.202 231.539 460.098V459.319C231.539 459.215 231.455 459.131 231.351 459.131H229.801C229.697 459.131 229.613 459.215 229.613 459.319V460.098C229.613 460.202 229.697 460.286 229.801 460.286Z" fill="#3F3D56"/>
<path d="M225.95 460.286H227.499C227.603 460.286 227.688 460.202 227.688 460.098V459.319C227.688 459.215 227.603 459.131 227.499 459.131H225.95C225.846 459.131 225.762 459.215 225.762 459.319V460.098C225.762 460.202 225.846 460.286 225.95 460.286Z" fill="#3F3D56"/>
<path d="M222.098 460.286H223.648C223.752 460.286 223.836 460.202 223.836 460.098V459.319C223.836 459.215 223.752 459.131 223.648 459.131H222.098C221.994 459.131 221.91 459.215 221.91 459.319V460.098C221.91 460.202 221.994 460.286 222.098 460.286Z" fill="#3F3D56"/>
<path d="M218.247 460.286H219.796C219.9 460.286 219.984 460.202 219.984 460.098V459.319C219.984 459.215 219.9 459.131 219.796 459.131H218.247C218.143 459.131 218.059 459.215 218.059 459.319V460.098C218.059 460.202 218.143 460.286 218.247 460.286Z" fill="#3F3D56"/>
<path d="M214.395 460.286H215.945C216.049 460.286 216.133 460.202 216.133 460.098V459.319C216.133 459.215 216.049 459.131 215.945 459.131H214.395C214.291 459.131 214.207 459.215 214.207 459.319V460.098C214.207 460.202 214.291 460.286 214.395 460.286Z" fill="#3F3D56"/>
<path d="M210.543 460.286H212.093C212.197 460.286 212.281 460.202 212.281 460.098V459.319C212.281 459.215 212.197 459.131 212.093 459.131H210.543C210.44 459.131 210.355 459.215 210.355 459.319V460.098C210.355 460.202 210.44 460.286 210.543 460.286Z" fill="#3F3D56"/>
<path d="M206.692 460.286H208.242C208.345 460.286 208.43 460.202 208.43 460.098V459.319C208.43 459.215 208.345 459.131 208.242 459.131H206.692C206.588 459.131 206.504 459.215 206.504 459.319V460.098C206.504 460.202 206.588 460.286 206.692 460.286Z" fill="#3F3D56"/>
<path d="M202.84 460.286H204.39C204.494 460.286 204.578 460.202 204.578 460.098V459.319C204.578 459.215 204.494 459.131 204.39 459.131H202.84C202.737 459.131 202.652 459.215 202.652 459.319V460.098C202.652 460.202 202.737 460.286 202.84 460.286Z" fill="#3F3D56"/>
<path d="M198.988 460.286H200.538C200.642 460.286 200.726 460.202 200.726 460.098V459.319C200.726 459.215 200.642 459.131 200.538 459.131H198.988C198.884 459.131 198.8 459.215 198.8 459.319V460.098C198.8 460.202 198.884 460.286 198.988 460.286Z" fill="#3F3D56"/>
<path d="M195.137 460.286H196.686C196.79 460.286 196.875 460.202 196.875 460.098V459.319C196.875 459.215 196.79 459.131 196.686 459.131H195.137C195.033 459.131 194.949 459.215 194.949 459.319V460.098C194.949 460.202 195.033 460.286 195.137 460.286Z" fill="#3F3D56"/>
<path d="M191.285 460.286H192.835C192.939 460.286 193.023 460.202 193.023 460.098V459.319C193.023 459.215 192.939 459.131 192.835 459.131H191.285C191.181 459.131 191.097 459.215 191.097 459.319V460.098C191.097 460.202 191.181 460.286 191.285 460.286Z" fill="#3F3D56"/>
<path d="M187.434 460.286H188.983C189.087 460.286 189.171 460.202 189.171 460.098V459.319C189.171 459.215 189.087 459.131 188.983 459.131H187.434C187.33 459.131 187.246 459.215 187.246 459.319V460.098C187.246 460.202 187.33 460.286 187.434 460.286Z" fill="#3F3D56"/>
<path d="M183.582 460.286H185.132C185.236 460.286 185.32 460.202 185.32 460.098V459.319C185.32 459.215 185.236 459.131 185.132 459.131H183.582C183.478 459.131 183.394 459.215 183.394 459.319V460.098C183.394 460.202 183.478 460.286 183.582 460.286Z" fill="#3F3D56"/>
<path d="M179.73 460.286H181.28C181.384 460.286 181.468 460.202 181.468 460.098V459.319C181.468 459.215 181.384 459.131 181.28 459.131H179.73C179.627 459.131 179.542 459.215 179.542 459.319V460.098C179.542 460.202 179.627 460.286 179.73 460.286Z" fill="#3F3D56"/>
<path d="M205.536 462.598H220.566C220.67 462.598 220.754 462.513 220.754 462.41V461.63C220.754 461.526 220.67 461.442 220.566 461.442H205.536C205.432 461.442 205.348 461.526 205.348 461.63V462.41C205.348 462.513 205.432 462.598 205.536 462.598Z" fill="#3F3D56"/>
<path d="M162.895 368.362H261.234C261.337 368.36 261.434 368.317 261.505 368.244C261.577 368.171 261.617 368.073 261.617 367.971C261.617 367.868 261.577 367.77 261.505 367.697C261.434 367.624 261.337 367.582 261.234 367.58H162.895C162.793 367.582 162.695 367.624 162.624 367.697C162.552 367.77 162.512 367.868 162.512 367.971C162.512 368.073 162.552 368.171 162.624 368.244C162.695 368.317 162.793 368.36 162.895 368.362Z" fill="#3F3D56"/>
<path d="M254.54 365.583C255.806 365.583 256.832 364.533 256.832 363.239C256.832 361.945 255.806 360.896 254.54 360.896C253.275 360.896 252.249 361.945 252.249 363.239C252.249 364.533 253.275 365.583 254.54 365.583Z" fill="#3F3D56"/>
<path d="M246.623 365.583C247.889 365.583 248.915 364.533 248.915 363.239C248.915 361.945 247.889 360.896 246.623 360.896C245.357 360.896 244.331 361.945 244.331 363.239C244.331 364.533 245.357 365.583 246.623 365.583Z" fill="#3F3D56"/>
<path d="M238.706 365.583C239.972 365.583 240.998 364.533 240.998 363.239C240.998 361.945 239.972 360.896 238.706 360.896C237.44 360.896 236.414 361.945 236.414 363.239C236.414 364.533 237.44 365.583 238.706 365.583Z" fill="#3F3D56"/>
<path d="M167.243 361.903C167.242 361.958 167.253 362.013 167.274 362.064C167.295 362.116 167.326 362.162 167.365 362.202C167.404 362.241 167.45 362.272 167.501 362.294C167.552 362.315 167.607 362.326 167.663 362.326H173.286C173.397 362.324 173.503 362.278 173.58 362.198C173.658 362.119 173.702 362.012 173.702 361.901C173.702 361.79 173.658 361.683 173.58 361.603C173.503 361.524 173.397 361.478 173.286 361.475H167.663C167.55 361.476 167.443 361.522 167.364 361.602C167.286 361.682 167.242 361.79 167.243 361.903Z" fill="#3F3D56"/>
<path d="M167.243 363.502C167.242 363.557 167.253 363.612 167.274 363.663C167.295 363.714 167.326 363.761 167.365 363.8C167.404 363.84 167.45 363.871 167.501 363.893C167.552 363.914 167.607 363.925 167.663 363.925H173.286C173.397 363.923 173.503 363.877 173.581 363.797C173.659 363.718 173.702 363.611 173.702 363.5C173.702 363.388 173.659 363.281 173.581 363.202C173.503 363.122 173.397 363.076 173.286 363.074H167.663C167.55 363.075 167.443 363.121 167.364 363.201C167.286 363.281 167.242 363.389 167.243 363.502Z" fill="#3F3D56"/>
<path d="M167.243 365.096C167.242 365.209 167.286 365.317 167.364 365.397C167.443 365.477 167.55 365.523 167.663 365.524H173.286C173.397 365.521 173.503 365.475 173.58 365.396C173.658 365.316 173.702 365.21 173.702 365.098C173.702 364.987 173.658 364.88 173.58 364.801C173.503 364.721 173.397 364.675 173.286 364.673H167.663C167.607 364.673 167.552 364.684 167.501 364.705C167.45 364.727 167.404 364.758 167.365 364.797C167.326 364.837 167.295 364.883 167.274 364.935C167.253 364.986 167.242 365.041 167.243 365.096Z" fill="#3F3D56"/>
<path d="M168.98 377.452H166.96C166.347 377.452 165.851 377.949 165.851 378.562C165.851 379.174 166.347 379.671 166.96 379.671H168.98C169.593 379.671 170.09 379.174 170.09 378.562C170.09 377.949 169.593 377.452 168.98 377.452Z" fill="#E6E6E6"/>
<path d="M192.09 377.452H190.069C189.457 377.452 188.96 377.949 188.96 378.562C188.96 379.174 189.457 379.671 190.069 379.671H192.09C192.702 379.671 193.199 379.174 193.199 378.562C193.199 377.949 192.702 377.452 192.09 377.452Z" fill="#E6E6E6"/>
<path d="M198.638 377.452H196.617C196.004 377.452 195.508 377.949 195.508 378.562C195.508 379.174 196.004 379.671 196.617 379.671H198.638C199.25 379.671 199.747 379.174 199.747 378.562C199.747 377.949 199.25 377.452 198.638 377.452Z" fill="#E6E6E6"/>
<path d="M185.804 377.267H173.246C172.633 377.267 172.137 377.764 172.137 378.377C172.137 378.989 172.633 379.486 173.246 379.486H185.804C186.417 379.486 186.914 378.989 186.914 378.377C186.914 377.764 186.417 377.267 185.804 377.267Z" fill="#E6E6E6"/>
<path d="M216.617 377.267H204.058C203.446 377.267 202.949 377.764 202.949 378.377C202.949 378.989 203.446 379.486 204.058 379.486H216.617C217.229 379.486 217.726 378.989 217.726 378.377C217.726 377.764 217.229 377.267 216.617 377.267Z" fill="#E6E6E6"/>
<path d="M175.143 382.46H173.122C172.51 382.46 172.013 382.957 172.013 383.57C172.013 384.182 172.51 384.679 173.122 384.679H175.143C175.756 384.679 176.252 384.182 176.252 383.57C176.252 382.957 175.756 382.46 175.143 382.46Z" fill="#E6E6E6"/>
<path d="M198.252 382.46H196.232C195.619 382.46 195.123 382.957 195.123 383.57C195.123 384.182 195.619 384.679 196.232 384.679H198.252C198.865 384.679 199.362 384.182 199.362 383.57C199.362 382.957 198.865 382.46 198.252 382.46Z" fill="#E6E6E6"/>
<path d="M204.8 382.46H202.78C202.167 382.46 201.67 382.957 201.67 383.57C201.67 384.182 202.167 384.679 202.78 384.679H204.8C205.413 384.679 205.909 384.182 205.909 383.57C205.909 382.957 205.413 382.46 204.8 382.46Z" fill="#E6E6E6"/>
<path d="M191.966 382.275H179.408C178.795 382.275 178.299 382.772 178.299 383.385C178.299 383.997 178.795 384.494 179.408 384.494H191.966C192.579 384.494 193.076 383.997 193.076 383.385C193.076 382.772 192.579 382.275 191.966 382.275Z" fill="#E6E6E6"/>
<path d="M222.779 382.275H210.221C209.608 382.275 209.111 382.772 209.111 383.385C209.111 383.997 209.608 384.494 210.221 384.494H222.779C223.392 384.494 223.888 383.997 223.888 383.385C223.888 382.772 223.392 382.275 222.779 382.275Z" fill="#E6E6E6"/>
<path d="M181.306 387.468H179.285C178.672 387.468 178.176 387.965 178.176 388.578C178.176 389.19 178.672 389.687 179.285 389.687H181.306C181.918 389.687 182.415 389.19 182.415 388.578C182.415 387.965 181.918 387.468 181.306 387.468Z" fill="#E6E6E6"/>
<path d="M204.415 387.468H202.394C201.782 387.468 201.285 387.965 201.285 388.578C201.285 389.19 201.782 389.687 202.394 389.687H204.415C205.028 389.687 205.524 389.19 205.524 388.578C205.524 387.965 205.028 387.468 204.415 387.468Z" fill="#E6E6E6"/>
<path d="M210.963 387.468H208.942C208.33 387.468 207.833 387.965 207.833 388.578C207.833 389.19 208.33 389.687 208.942 389.687H210.963C211.575 389.687 212.072 389.19 212.072 388.578C212.072 387.965 211.575 387.468 210.963 387.468Z" fill="#E6E6E6"/>
<path d="M198.129 387.283H185.571C184.958 387.283 184.461 387.78 184.461 388.393C184.461 389.005 184.958 389.502 185.571 389.502H198.129C198.742 389.502 199.238 389.005 199.238 388.393C199.238 387.78 198.742 387.283 198.129 387.283Z" fill="#E6E6E6"/>
<path d="M228.942 387.283H216.383C215.771 387.283 215.274 387.78 215.274 388.393C215.274 389.005 215.771 389.502 216.383 389.502H228.942C229.554 389.502 230.051 389.005 230.051 388.393C230.051 387.78 229.554 387.283 228.942 387.283Z" fill="#E6E6E6"/>
<path d="M187.468 392.476H185.448C184.835 392.476 184.338 392.973 184.338 393.586C184.338 394.199 184.835 394.695 185.448 394.695H187.468C188.081 394.695 188.577 394.199 188.577 393.586C188.577 392.973 188.081 392.476 187.468 392.476Z" fill="#E6E6E6"/>
<path d="M210.578 392.476H208.557C207.944 392.476 207.448 392.973 207.448 393.586C207.448 394.199 207.944 394.695 208.557 394.695H210.578C211.19 394.695 211.687 394.199 211.687 393.586C211.687 392.973 211.19 392.476 210.578 392.476Z" fill="#E6E6E6"/>
<path d="M217.125 392.476H215.104C214.492 392.476 213.995 392.973 213.995 393.586C213.995 394.199 214.492 394.695 215.104 394.695H217.125C217.738 394.695 218.234 394.199 218.234 393.586C218.234 392.973 217.738 392.476 217.125 392.476Z" fill="#E6E6E6"/>
<path d="M204.292 392.291H191.733C191.121 392.291 190.624 392.788 190.624 393.401C190.624 394.013 191.121 394.51 191.733 394.51H204.292C204.904 394.51 205.401 394.013 205.401 393.401C205.401 392.788 204.904 392.291 204.292 392.291Z" fill="#E6E6E6"/>
<path d="M192.09 412.39H190.069C189.457 412.39 188.96 412.887 188.96 413.5C188.96 414.113 189.457 414.609 190.069 414.609H192.09C192.702 414.609 193.199 414.113 193.199 413.5C193.199 412.887 192.702 412.39 192.09 412.39Z" fill="#E6E6E6"/>
<path d="M198.638 412.39H196.617C196.004 412.39 195.508 412.887 195.508 413.5C195.508 414.113 196.004 414.609 196.617 414.609H198.638C199.25 414.609 199.747 414.113 199.747 413.5C199.747 412.887 199.25 412.39 198.638 412.39Z" fill="#E6E6E6"/>
<path d="M216.617 412.575H204.058C203.446 412.575 202.949 413.072 202.949 413.685C202.949 414.298 203.446 414.794 204.058 414.794H216.617C217.229 414.794 217.726 414.298 217.726 413.685C217.726 413.072 217.229 412.575 216.617 412.575Z" fill="#E6E6E6"/>
<path d="M168.98 412.39H166.96C166.347 412.39 165.851 412.887 165.851 413.5C165.851 414.113 166.347 414.609 166.96 414.609H168.98C169.593 414.609 170.09 414.113 170.09 413.5C170.09 412.887 169.593 412.39 168.98 412.39Z" fill="#E6E6E6"/>
<path d="M185.804 412.575H173.246C172.633 412.575 172.137 413.072 172.137 413.685C172.137 414.298 172.633 414.794 173.246 414.794H185.804C186.417 414.794 186.914 414.298 186.914 413.685C186.914 413.072 186.417 412.575 185.804 412.575Z" fill="#E6E6E6"/>
<path d="M175.143 407.382H173.122C172.51 407.382 172.013 407.879 172.013 408.492C172.013 409.105 172.51 409.601 173.122 409.601H175.143C175.756 409.601 176.252 409.105 176.252 408.492C176.252 407.879 175.756 407.382 175.143 407.382Z" fill="#E6E6E6"/>
<path d="M198.252 407.382H196.232C195.619 407.382 195.123 407.879 195.123 408.492C195.123 409.105 195.619 409.601 196.232 409.601H198.252C198.865 409.601 199.362 409.105 199.362 408.492C199.362 407.879 198.865 407.382 198.252 407.382Z" fill="#E6E6E6"/>
<path d="M204.8 407.382H202.78C202.167 407.382 201.67 407.879 201.67 408.492C201.67 409.105 202.167 409.601 202.78 409.601H204.8C205.413 409.601 205.909 409.105 205.909 408.492C205.909 407.879 205.413 407.382 204.8 407.382Z" fill="#E6E6E6"/>
<path d="M191.966 407.567H179.408C178.795 407.567 178.299 408.064 178.299 408.677C178.299 409.29 178.795 409.786 179.408 409.786H191.966C192.579 409.786 193.076 409.29 193.076 408.677C193.076 408.064 192.579 407.567 191.966 407.567Z" fill="#E6E6E6"/>
<path d="M181.306 402.374H179.285C178.672 402.374 178.176 402.871 178.176 403.484C178.176 404.096 178.672 404.593 179.285 404.593H181.306C181.918 404.593 182.415 404.096 182.415 403.484C182.415 402.871 181.918 402.374 181.306 402.374Z" fill="#E6E6E6"/>
<path d="M204.415 402.374H202.394C201.782 402.374 201.285 402.871 201.285 403.484C201.285 404.096 201.782 404.593 202.394 404.593H204.415C205.028 404.593 205.524 404.096 205.524 403.484C205.524 402.871 205.028 402.374 204.415 402.374Z" fill="#E6E6E6"/>
<path d="M210.963 402.374H208.942C208.33 402.374 207.833 402.871 207.833 403.484C207.833 404.096 208.33 404.593 208.942 404.593H210.963C211.575 404.593 212.072 404.096 212.072 403.484C212.072 402.871 211.575 402.374 210.963 402.374Z" fill="#E6E6E6"/>
<path d="M198.129 402.56H185.571C184.958 402.56 184.461 403.056 184.461 403.669C184.461 404.282 184.958 404.778 185.571 404.778H198.129C198.742 404.778 199.238 404.282 199.238 403.669C199.238 403.056 198.742 402.56 198.129 402.56Z" fill="#E6E6E6"/>
<path d="M187.468 397.366H185.448C184.835 397.366 184.338 397.863 184.338 398.476C184.338 399.088 184.835 399.585 185.448 399.585H187.468C188.081 399.585 188.577 399.088 188.577 398.476C188.577 397.863 188.081 397.366 187.468 397.366Z" fill="#E6E6E6"/>
<path d="M210.578 397.366H208.557C207.944 397.366 207.448 397.863 207.448 398.476C207.448 399.088 207.944 399.585 208.557 399.585H210.578C211.19 399.585 211.687 399.088 211.687 398.476C211.687 397.863 211.19 397.366 210.578 397.366Z" fill="#E6E6E6"/>
<path d="M217.125 397.366H215.104C214.492 397.366 213.995 397.863 213.995 398.476C213.995 399.088 214.492 399.585 215.104 399.585H217.125C217.738 399.585 218.234 399.088 218.234 398.476C218.234 397.863 217.738 397.366 217.125 397.366Z" fill="#E6E6E6"/>
<path d="M204.292 397.551H191.733C191.121 397.551 190.624 398.048 190.624 398.661C190.624 399.273 191.121 399.77 191.733 399.77H204.292C204.904 399.77 205.401 399.273 205.401 398.661C205.401 398.048 204.904 397.551 204.292 397.551Z" fill="#E6E6E6"/>
<path d="M178.771 484.32C178.686 484.362 178.602 484.405 178.517 484.443C177.982 484.709 177.442 484.971 176.899 485.229C175.274 486.003 173.628 486.739 171.962 487.436C167.577 489.271 163.078 490.819 158.493 492.071C157.722 487.267 156.975 475.937 156.259 467.604C156.124 466.037 155.989 464.576 155.854 463.286C155.726 461.592 155.483 459.908 155.126 458.247C155.091 458.117 155.041 457.991 154.976 457.873C155.049 458.54 155.126 460.528 155.2 463.286C155.238 464.576 155.273 466.037 155.311 467.604C155.492 475.625 155.681 486.539 155.87 492.753C155.334 492.884 154.795 493.015 154.256 493.138C153.917 493.219 153.574 493.296 153.231 493.369C152.815 493.461 152.399 493.554 151.984 493.639C151.548 493.731 151.113 493.82 150.678 493.904C143.566 495.302 136.334 496.004 129.086 496C128.604 496 128.127 495.996 127.645 495.992C127.499 495.992 127.353 495.989 127.203 495.985C126.779 495.977 126.34 495.969 125.893 495.958C117.327 495.721 108.818 494.494 100.534 492.302L100.869 467.604L100.927 463.286L100.95 461.649C100.759 462.175 100.645 462.727 100.611 463.286C100.476 464.338 100.338 465.828 100.199 467.604C99.6715 474.446 99.1284 485.483 98.5661 491.762C91.9067 489.867 87.0383 488.137 80.9528 485.094C80.7179 484.978 80.4791 484.859 80.2441 484.74C80.2865 484.443 80.3327 484.146 80.3751 483.842C81.0645 479.05 80.2518 472.813 81.0145 467.604C81.596 463.586 82.1969 459.726 82.8016 456.452C83.5334 452.511 84.2767 449.414 85.0124 447.907C85.8597 446.17 86.7071 444.46 87.5275 442.822C87.8818 442.117 88.2298 441.425 88.5712 440.746C88.7561 440.38 88.941 440.018 89.122 439.663C89.9463 438.049 90.7243 436.558 91.4368 435.237C91.9375 434.309 92.3997 433.469 92.8234 432.733C93.3202 431.866 93.7593 431.15 94.1214 430.606C96.7955 426.552 100.774 423.533 105.399 422.05L105.514 422.02L105.626 422.066L105.753 422.124L113.094 419.439L116.372 411.545L133.207 410.509L135.926 412.577L137.317 413.637L138.8 414.766L141.526 416.842L142.301 417.081L143.452 417.435L151.329 419.855L151.41 419.82L151.525 419.851C155.733 421.198 159.417 423.824 162.063 427.363C162.325 427.702 162.568 428.052 162.803 428.407C163.442 429.354 164.305 430.853 165.321 432.733C165.741 433.507 166.184 434.347 166.65 435.237C166.931 435.772 169.358 443.346 171.719 451.082C173.926 458.324 176.075 465.709 176.356 467.604C176.406 467.955 176.46 468.309 176.51 468.66C176.83 470.852 177.146 473.059 177.45 475.213C177.901 478.406 178.34 481.488 178.76 484.243C178.763 484.27 178.767 484.293 178.771 484.32Z" fill="#3F3D56"/>
<path opacity="0.2" d="M160.93 456.434L157.657 443.801L154.768 454.702L160.93 456.434Z" fill="black"/>
<path d="M50.0968 456.287C50.2665 456.782 50.5884 457.209 51.0162 457.509C51.4441 457.809 51.9559 457.965 52.4783 457.956L62.6818 457.693C63.2079 457.683 63.7166 457.503 64.1318 457.179C64.547 456.856 64.8464 456.407 64.9853 455.899L66.4292 440.456C66.9415 440.688 67.4992 440.803 68.0615 440.792C69.0481 440.767 69.9845 440.351 70.6646 439.636C71.3447 438.921 71.7129 437.964 71.6881 436.978C71.6633 435.991 71.2477 435.054 70.5325 434.374C69.8174 433.694 68.8613 433.326 67.8748 433.35C67.65 433.35 67.4258 433.373 67.206 433.42C66.967 433.161 66.6765 432.956 66.3532 432.816C66.0299 432.676 65.6809 432.606 65.3288 432.61L49.6334 433.015C49.5032 433.02 49.3737 433.036 49.2463 433.063C48.9021 433.127 48.5756 433.265 48.2889 433.465C48.0021 433.666 47.7617 433.927 47.5839 434.228C47.406 434.53 47.2949 434.866 47.2579 435.214C47.2209 435.563 47.2589 435.915 47.3693 436.247L50.0968 456.287ZM66.7253 439.408L67.7528 435.728C67.8697 435.303 67.8724 434.854 67.7607 434.428C67.8105 434.428 67.8545 434.404 67.9043 434.404C68.6088 434.389 69.2904 434.655 69.7995 435.142C70.3086 435.629 70.6038 436.298 70.6203 437.003C70.6368 437.708 70.3733 438.39 69.8875 438.901C69.4017 439.411 68.7334 439.708 68.029 439.727C67.5735 439.741 67.1228 439.631 66.7253 439.408Z" fill="#2F2E41"/>
<path d="M49.2461 433.063C49.5805 434.976 53.34 436.32 57.8605 436.086C62.0174 435.895 65.4163 434.435 66.039 432.704C65.8085 432.636 65.5689 432.604 65.3286 432.61L49.6332 433.015C49.5031 433.02 49.3735 433.036 49.2461 433.063Z" fill="#3F3D56"/>
<path d="M58.6891 447.802C58.7097 447.796 58.7294 447.788 58.7472 447.776L60.963 446.325C60.9898 446.308 61.0118 446.284 61.0271 446.256C61.0423 446.228 61.0503 446.196 61.0503 446.164C61.0503 446.132 61.0424 446.101 61.0272 446.073C61.0119 446.045 60.9899 446.021 60.9632 446.003L58.66 444.494C58.6389 444.48 58.6152 444.471 58.5903 444.466C58.5654 444.461 58.5398 444.461 58.515 444.466C58.4902 444.471 58.4666 444.481 58.4456 444.496C58.4247 444.51 58.4067 444.528 58.3928 444.549C58.3789 444.571 58.3694 444.594 58.3647 444.619C58.36 444.644 58.3602 444.67 58.3654 444.695C58.3707 444.719 58.3807 444.743 58.3951 444.764C58.4094 444.785 58.4277 444.803 58.449 444.816L60.5061 446.164L58.5364 447.454C58.4982 447.479 58.4702 447.516 58.4572 447.56C58.4442 447.604 58.4471 447.651 58.4654 447.692C58.4838 447.734 58.5163 447.768 58.5572 447.788C58.5982 447.808 58.6449 447.813 58.689 447.802H58.6891Z" fill="#FE9A76"/>
<path d="M55.1893 447.963C55.2265 447.954 55.26 447.933 55.2856 447.905C55.3112 447.876 55.3276 447.84 55.3328 447.802C55.338 447.764 55.3318 447.726 55.3149 447.691C55.298 447.657 55.2711 447.628 55.2379 447.609L53.1954 446.438L55.1695 444.971C55.1898 444.956 55.2069 444.937 55.2199 444.916C55.2329 444.894 55.2414 444.87 55.2451 444.845C55.2488 444.82 55.2475 444.794 55.2414 444.77C55.2352 444.745 55.2243 444.722 55.2092 444.702C55.1941 444.682 55.1752 444.665 55.1535 444.652C55.1318 444.639 55.1078 444.63 55.0828 444.626C55.0578 444.623 55.0323 444.624 55.0078 444.63C54.9833 444.636 54.9602 444.647 54.94 444.662L52.7297 446.304C52.704 446.323 52.6835 446.349 52.6699 446.378C52.6564 446.406 52.6503 446.438 52.6522 446.47C52.6541 446.502 52.6639 446.533 52.6807 446.56C52.6975 446.588 52.7209 446.61 52.7486 446.626L55.0462 447.943C55.0895 447.968 55.1409 447.975 55.1893 447.963Z" fill="#FE9A76"/>
<path d="M58.4685 449.073C58.4872 449.068 58.505 449.061 58.5213 449.051C58.5429 449.037 58.5617 449.02 58.5767 449C58.5916 448.979 58.6024 448.956 58.6084 448.932C58.6144 448.907 58.6155 448.882 58.6116 448.856C58.6077 448.831 58.599 448.807 58.5858 448.786L55.4447 443.621C55.418 443.577 55.3752 443.546 55.3256 443.534C55.2761 443.522 55.2238 443.53 55.1803 443.557C55.1368 443.583 55.1056 443.626 55.0934 443.676C55.0813 443.725 55.0893 443.777 55.1156 443.821L58.2567 448.986C58.2781 449.022 58.3103 449.049 58.3484 449.064C58.3865 449.08 58.4286 449.083 58.4685 449.073Z" fill="#FE9A76"/>
<path d="M346.406 484.739C346.171 484.858 345.932 484.978 345.697 485.093C339.612 488.136 334.743 489.866 328.084 491.761C327.522 485.482 326.979 474.445 326.451 467.603C326.312 465.828 326.174 464.337 326.039 463.285C326.005 462.726 325.891 462.174 325.7 461.648L325.723 463.285L325.781 467.603L326.116 492.301C317.832 494.493 309.323 495.72 300.757 495.957C300.31 495.968 299.871 495.976 299.448 495.984C299.297 495.988 299.151 495.991 299.005 495.991C298.523 495.995 298.046 495.999 297.564 495.999C288.538 496.006 279.544 494.915 270.78 492.752C270.969 486.538 271.158 475.624 271.339 467.603C271.377 466.036 271.412 464.575 271.451 463.285C271.524 460.527 271.601 458.539 271.674 457.872C271.609 457.99 271.559 458.116 271.524 458.246C271.167 459.907 270.924 461.591 270.796 463.285C270.661 464.575 270.526 466.036 270.391 467.603C269.675 475.936 268.928 487.266 268.157 492.07C263.572 490.818 259.073 489.27 254.688 487.435C252.378 486.472 250.108 485.433 247.879 484.319C248.303 481.545 248.746 478.436 249.2 475.212C249.554 472.712 249.92 470.142 250.294 467.603C250.872 463.682 270.499 421.333 275.125 419.85L275.24 419.819L275.321 419.854L283.198 417.434L284.349 417.08L285.124 416.841L287.851 414.765L289.333 413.636L290.724 412.577L293.443 410.508L310.278 411.544L313.556 419.438L320.897 422.123L321.024 422.065L321.136 422.019L321.251 422.049C325.876 423.532 329.855 426.551 332.529 430.605C332.891 431.149 333.33 431.865 333.827 432.732C334.25 433.468 334.713 434.308 335.213 435.236C335.926 436.557 336.704 438.048 337.528 439.662C337.709 440.017 337.894 440.379 338.079 440.745C338.422 441.423 338.77 442.115 339.123 442.821C339.943 444.459 340.79 446.169 341.638 447.906C342.373 449.413 343.117 452.51 343.849 456.451C344.453 459.725 345.054 463.585 345.636 467.603C346.398 472.812 345.586 479.049 346.275 483.841C346.317 484.145 346.364 484.442 346.406 484.739Z" fill="#3F3D56"/>
<path d="M297.031 407.674C307.844 407.674 316.611 398.906 316.611 388.09C316.611 377.274 307.844 368.506 297.031 368.506C286.217 368.506 277.451 377.274 277.451 388.09C277.451 398.906 286.217 407.674 297.031 407.674Z" fill="#FFB6B6"/>
<path opacity="0.2" d="M265.719 456.434L268.992 443.801L271.882 454.702L265.719 456.434Z" fill="black"/>
<path d="M352.807 448.203C351.636 464.337 352.85 471.441 346.387 484.743C340.506 487.621 334.381 489.97 328.084 491.762C327.429 491.947 326.773 492.126 326.116 492.301C317.832 494.493 309.323 495.72 300.757 495.957C300.31 495.968 299.871 495.976 299.448 495.984C299.297 495.988 299.151 495.992 299.005 495.992C298.523 495.995 298.046 495.999 297.564 495.999C288.538 496.006 279.544 494.915 270.78 492.752C269.902 492.536 269.028 492.309 268.157 492.07C263.572 490.818 259.073 489.27 254.688 487.435C252.377 486.472 250.108 485.434 247.879 484.319C247.374 484.065 246.87 483.81 246.373 483.548C243.819 479.057 242.367 473.594 242.336 467.03C244.104 455.719 348.902 438.449 352.807 448.203Z" fill="#2F2E41"/>
<path opacity="0.2" d="M352.804 450.966C352.864 449.968 352.931 448.936 353.009 447.861C349.103 438.107 244.306 455.377 242.538 466.688C242.543 467.725 242.587 468.731 242.662 469.714C246.943 458.55 346.502 442.136 352.804 450.966Z" fill="black"/>
<path d="M239.73 448.964L248.332 444.662L241.164 425.304L239.275 415.541C239.029 414.273 238.455 413.091 237.61 412.114C236.765 411.137 235.678 410.399 234.459 409.974C233.239 409.548 231.929 409.451 230.66 409.69C229.391 409.93 228.207 410.499 227.226 411.339C225.773 412.585 224.86 414.347 224.681 416.253C224.502 418.159 225.07 420.06 226.266 421.555L233.279 430.323L239.73 448.964Z" fill="#FFB6B6"/>
<path d="M248.332 441.077L236.863 446.813L245.567 474.091C246.192 476.05 247.312 477.814 248.82 479.212C250.327 480.611 252.17 481.596 254.17 482.072C256.635 482.659 259.224 482.445 261.561 481.462C263.897 480.479 265.86 478.777 267.164 476.603L290.244 437.034C291.88 434.307 292.385 431.049 291.651 427.955C290.917 424.861 289.003 422.177 286.317 420.475C284.873 419.56 283.252 418.96 281.56 418.713C279.868 418.466 278.143 418.578 276.498 419.042C274.852 419.506 273.322 420.311 272.008 421.405C270.694 422.5 269.625 423.858 268.871 425.393L254.784 455.417L248.332 441.077Z" fill="#3F3D56"/>
<path d="M124.693 406.323C136.591 406.323 146.237 396.676 146.237 384.775C146.237 372.874 136.591 363.227 124.693 363.227C112.795 363.227 103.149 372.874 103.149 384.775C103.149 396.676 112.795 406.323 124.693 406.323Z" fill="#A0616A"/>
<path d="M103.408 369.926C105.16 367.564 107.678 365.886 109.603 363.664C110.66 362.445 111.537 361.064 112.725 359.972C114.932 357.945 118.019 357.114 121.014 357.011C124.296 356.926 127.552 357.616 130.519 359.024C133.485 360.432 136.078 362.519 138.088 365.116C139.654 364.197 141.219 363.279 142.785 362.361C143.403 363.99 144.022 365.618 144.64 367.246C145.148 366.805 145.795 366.557 146.468 366.548C147.14 366.539 147.794 366.768 148.314 367.194C148.834 367.621 149.186 368.218 149.307 368.88C149.429 369.541 149.313 370.225 148.979 370.809C149.351 369.657 151.058 369.413 151.999 370.174C152.94 370.934 153.192 372.288 153.039 373.488C152.846 374.805 152.264 376.034 151.367 377.018C150.471 378.001 149.3 378.694 148.007 379.007C145.964 379.462 143.586 378.984 141.951 380.291C140.64 381.338 140.244 383.246 138.907 384.259C137.258 385.508 134.928 384.93 132.879 385.206C129.294 385.689 126.455 389.356 126.886 392.949C126.562 391.815 126.221 390.649 125.485 389.728C124.749 388.807 123.509 388.184 122.379 388.523C120.513 389.082 120.208 391.627 120.66 393.523C121.86 398.55 126.406 406.676 126.406 406.676C120.503 409.005 113.469 406.803 108.914 402.383C104.359 397.963 101.987 391.705 100.954 385.442C100.077 380.131 100.202 374.249 103.408 369.926Z" fill="#2F2E41"/>
<path d="M321.568 398.886C325.667 389.487 323.345 380.838 318.348 376.25V376.246C316.384 371.843 313.772 368.445 310.784 367.648C309.339 366.719 307.937 365.629 306.381 365.074C305.656 364.803 304.884 364.681 304.111 364.716C303.338 364.751 302.58 364.942 301.883 365.278L301.089 365.067C300.415 363.345 299.626 363.31 298.747 364.442C295.366 362.867 292.319 362.162 289.608 362.162C280.764 362.162 275.534 369.651 274.147 378.704L281.539 380.672L284.108 376.577L282.921 381.042L287 382.125C293.209 390.211 285.779 408.864 276.362 419.242C278.604 418.622 280.836 418.098 283.06 417.67L291.141 405.821L286.134 416.607C288.733 416.226 292.05 416.592 295.674 417.327C296.895 415.733 297.538 413.606 296.906 411.711C297.939 413.71 298.651 415.859 299.017 418.079C306.666 419.947 317.1 420.906 322.723 421.615C327.267 420.132 327.279 403.378 321.568 398.886Z" fill="#2F2E41"/>
<path d="M324.235 366.915C327.237 373.639 321.179 376.531 315.63 376.449C310.615 376.375 306.354 372.852 306.098 367.842C305.975 365.437 306.812 363.081 308.426 361.293C310.04 359.505 312.298 358.431 314.703 358.308C319.711 358.052 322.19 362.335 324.235 366.915Z" fill="#2F2E41"/>
<path d="M184.96 476.367L180.015 468.117L196.458 455.64L203.294 448.421C204.183 447.483 205.301 446.794 206.539 446.424C207.776 446.054 209.089 446.016 210.347 446.312C211.604 446.609 212.761 447.23 213.703 448.114C214.645 448.998 215.338 450.114 215.714 451.35C216.271 453.181 216.094 455.158 215.221 456.862C214.349 458.566 212.849 459.864 211.037 460.482L200.413 464.11L184.96 476.367Z" fill="#A0616A"/>
<path d="M188.535 476.095L180.836 482.513L178.76 484.243L178.517 484.443C177.982 484.709 177.442 484.971 176.899 485.229C175.274 486.003 173.628 486.739 171.962 487.436C167.577 489.271 163.078 490.819 158.493 492.071C157.622 492.31 156.748 492.537 155.87 492.753C155.334 492.884 154.795 493.014 154.256 493.138C153.917 493.219 153.574 493.296 153.231 493.369C152.815 493.461 152.4 493.554 151.984 493.639C151.548 493.731 151.113 493.82 150.678 493.904C149.507 492.79 148.574 491.449 147.937 489.963C147.3 488.477 146.972 486.877 146.973 485.26C146.973 485.156 146.973 485.048 146.977 484.94L148.213 453.224L148.76 439.166C148.844 435.987 150.168 432.968 152.449 430.752C154.729 428.536 157.786 427.301 160.965 427.309C161.335 427.309 161.701 427.328 162.063 427.363C162.325 427.702 162.568 428.052 162.803 428.407C163.442 429.354 164.305 430.853 165.322 432.733C165.741 433.507 166.184 434.347 166.65 435.237C166.932 435.772 169.358 443.346 171.719 451.082L170.679 459.16L168.8 473.722L176.51 468.66L181.941 465.093L182.584 466.168L184.26 468.964L187.495 474.358L188.535 476.095Z" fill="#3F3D56"/>
<path d="M184.314 467.03C184.31 467.685 184.294 468.329 184.26 468.964C184.179 470.718 183.976 472.463 183.651 474.188C183.119 477.084 182.171 479.888 180.836 482.513C180.658 482.863 180.47 483.21 180.277 483.549C179.78 483.811 179.276 484.065 178.771 484.32C178.686 484.362 178.602 484.404 178.517 484.443C176.372 485.51 174.186 486.508 171.962 487.436C167.577 489.271 163.078 490.819 158.493 492.071C157.622 492.309 156.748 492.537 155.87 492.752C154.156 493.176 152.425 493.56 150.678 493.904C143.565 495.302 136.334 496.004 129.086 496C128.604 496 128.127 495.996 127.645 495.992C127.499 495.992 127.353 495.988 127.202 495.985C126.779 495.977 126.34 495.969 125.893 495.958C117.327 495.721 108.818 494.494 100.534 492.302C99.8755 492.128 99.2195 491.949 98.566 491.762C92.2688 489.971 86.1437 487.622 80.2633 484.743C73.8004 471.441 75.0137 464.338 73.8428 448.204C76.2462 442.198 116.907 446.439 148.213 453.223C156.709 455.065 164.513 457.095 170.679 459.16C177.049 461.29 181.668 463.455 183.478 465.489C183.901 465.91 184.191 466.446 184.314 467.03Z" fill="#2F2E41"/>
<path opacity="0.2" d="M73.8453 450.966C73.7855 449.968 73.7186 448.936 73.6406 447.861C77.5461 438.107 182.344 455.377 184.111 466.688C184.107 467.725 184.062 468.731 183.988 469.714C179.706 458.55 80.1475 442.136 73.8453 450.966Z" fill="black"/>
<path d="M223.731 326H196.269C195.932 326 195.61 325.866 195.372 325.629C195.134 325.391 195 325.07 195 324.734V299.266C195 298.93 195.134 298.609 195.372 298.371C195.61 298.134 195.932 298 196.269 298H223.731C224.068 298 224.39 298.134 224.628 298.371C224.866 298.609 225 298.93 225 299.266V324.734C225 325.07 224.866 325.391 224.628 325.629C224.39 325.866 224.068 326 223.731 326Z" fill="#FE9A76"/>
<path d="M213.616 326H209.384C209.017 326 208.665 325.833 208.406 325.537C208.146 325.241 208 324.839 208 324.42V290.58C208 290.161 208.146 289.759 208.406 289.463C208.665 289.167 209.017 289 209.384 289H213.616C213.983 289 214.335 289.167 214.594 289.463C214.854 289.759 215 290.161 215 290.58V324.42C215 324.839 214.854 325.241 214.594 325.537C214.335 325.833 213.983 326 213.616 326Z" fill="#3F3D56"/>
<path d="M212.097 287.316C213.693 290.226 211.46 294.477 211.46 294.477C211.46 294.477 206.64 294.01 205.044 291.1C203.448 288.19 205.68 283.939 205.68 283.939C205.68 283.939 210.501 284.406 212.097 287.316Z" fill="#3A3755"/>
<path d="M218.505 293.145C215.823 295.098 211.321 293.425 211.321 293.425C211.321 293.425 211.169 288.586 213.852 286.633C216.535 284.68 221.036 286.353 221.036 286.353C221.036 286.353 221.188 291.192 218.505 293.145Z" fill="#3A3755"/>
<path opacity="0.1" d="M230 280.812V293L218 277H227.141L230 280.812Z" fill="black"/>
<path d="M229.607 299.214C229.494 299.376 229.342 299.508 229.163 299.598C228.983 299.689 228.781 299.736 228.572 299.735L193 299.695C192.823 299.694 192.645 299.66 192.476 299.594C192.307 299.528 192.15 299.431 192.015 299.308C191.88 299.186 191.769 299.041 191.688 298.881C191.607 298.722 191.559 298.551 191.545 298.378L191.235 294.51C191.221 294.337 191.242 294.166 191.297 294.006C191.352 293.847 191.44 293.702 191.556 293.58C191.671 293.458 191.812 293.361 191.971 293.295C192.129 293.23 192.302 293.196 192.479 293.196L228.051 293.237C228.228 293.237 228.407 293.271 228.576 293.337C228.745 293.404 228.901 293.501 229.036 293.623C229.172 293.745 229.283 293.89 229.363 294.05C229.444 294.21 229.493 294.381 229.506 294.554L229.817 298.422C229.84 298.708 229.766 298.986 229.607 299.214Z" fill="#FC8B62"/>
<path d="M215.086 293.043L208.042 293L208 300.908L215.044 300.95L215.086 293.043Z" fill="#3F3D56"/>
</g>
</g>
<defs>
<linearGradient id="paint0_linear_836_3345" x1="25.5" y1="1" x2="25.5" y2="492" gradientUnits="userSpaceOnUse">
<stop stop-color="#FE9A76" stop-opacity="0.25"/>
<stop offset="1" stop-color="#FFF2F2" stop-opacity="0"/>
</linearGradient>
<linearGradient id="paint1_linear_836_3345" x1="442.5" y1="3" x2="442.5" y2="186" gradientUnits="userSpaceOnUse">
<stop stop-color="#FE9A76" stop-opacity="0.25"/>
<stop offset="1" stop-color="#FFF2F2" stop-opacity="0"/>
</linearGradient>
<clipPath id="clip0_836_3345">
<rect width="428" height="500" fill="white"/>
</clipPath>
<clipPath id="clip1_836_3345">
<rect width="339" height="222" fill="white" transform="translate(44 274)"/>
</clipPath>
</defs>
</svg>
