<svg width="428" height="500" viewBox="0 0 428 500" fill="none" xmlns="http://www.w3.org/2000/svg">
<g clip-path="url(#clip0_836_3585)">
<circle cx="14.5" cy="94.5" r="91.5" fill="url(#paint0_linear_836_3585)"/>
<circle cx="62.5" cy="255.5" r="32.5" fill="url(#paint1_linear_836_3585)"/>
<circle cx="453.5" cy="246.5" r="245.5" fill="url(#paint2_linear_836_3585)"/>
<g clip-path="url(#clip1_836_3585)">
<path d="M26 497.227C26 497.588 26.2899 497.877 26.6509 497.877H400.349C400.71 497.877 401 497.588 401 497.227C401 496.867 400.71 496.578 400.349 496.578H26.6509C26.2899 496.578 26 496.867 26 497.227Z" fill="#E6E6E6"/>
<path d="M181.047 497.714H64.2381C59.5733 497.714 55.7783 493.924 55.7783 489.267V272.447C55.7783 267.789 59.5733 264 64.2381 264H181.047C185.712 264 189.507 267.789 189.507 272.447V489.267C189.507 493.924 185.712 497.714 181.047 497.714H181.047ZM64.2381 265.092C60.1766 265.092 56.8721 268.391 56.8721 272.447V489.267C56.8721 493.322 60.1766 496.621 64.2381 496.621H181.047C185.109 496.621 188.413 493.322 188.413 489.267V272.447C188.413 268.391 185.109 265.092 181.047 265.092H64.2381Z" fill="#E6E6E6"/>
<path d="M390.534 374.253C390.072 373.476 388.075 374.308 387.708 373.603C387.342 372.9 389.198 371.828 390.258 369.382C390.449 368.94 391.654 366.16 390.762 365.302C389.071 363.675 381.334 370.387 378.626 368.191C378.032 367.709 377.616 366.746 375.818 365.184C375.102 364.563 374.67 364.282 374.251 364.386C373.657 364.534 373.61 365.328 372.973 366.889C372.017 369.231 371.452 369.089 370.895 370.957C370.482 372.344 370.577 373.15 370.09 373.307C369.402 373.529 368.769 372.058 367.897 372.19C367.007 372.324 366.469 374.037 366.299 375.319C365.98 377.725 366.865 379.313 367.355 380.982C367.888 382.796 368.205 385.555 366.974 389.461L354.79 423.735C357.48 416.702 365.268 397.423 368.541 390.259C369.485 388.19 370.528 386.093 372.67 385.265C374.732 384.468 377.564 384.944 381.175 384.075C381.597 383.974 382.767 383.676 382.914 382.989C383.036 382.421 382.347 382.104 382.453 381.572C382.595 380.858 383.949 380.85 385.612 380.026C386.785 379.445 387.515 378.755 388.144 378.161C388.333 377.982 391.149 375.288 390.534 374.253H390.534L390.534 374.253Z" fill="#F2F2F2"/>
<path d="M342.6 392.296C342.085 392.298 341.918 393.517 341.465 393.494C341.014 393.47 341.023 392.252 340.126 391.026C339.964 390.805 338.945 389.412 338.266 389.602C336.978 389.961 338.045 395.69 336.184 396.383C335.776 396.535 335.183 396.461 333.896 396.891C333.384 397.063 333.121 397.194 333.052 397.429C332.953 397.763 333.33 398.015 333.913 398.778C334.789 399.921 334.556 400.158 335.314 400.969C335.876 401.572 336.299 401.758 336.236 402.042C336.147 402.443 335.241 402.329 335.054 402.795C334.864 403.269 335.55 404.027 336.131 404.48C337.222 405.331 338.258 405.355 339.22 405.597C340.266 405.859 341.713 406.5 343.278 408.23L356.611 424.09C353.93 420.742 346.7 411.363 344.122 407.692C343.378 406.633 342.648 405.516 342.859 404.228C343.062 402.987 344.113 401.737 344.728 399.717C344.8 399.481 344.991 398.822 344.696 398.551C344.452 398.328 344.097 398.574 343.866 398.368C343.556 398.093 343.943 397.427 344.018 396.374C344.071 395.632 343.942 395.075 343.832 394.595C343.798 394.451 343.286 392.294 342.6 392.296V392.296Z" fill="#F2F2F2"/>
<path d="M352.882 394.601L352.571 391.833L352.713 391.624C353.37 390.653 353.704 389.706 353.708 388.807C353.709 388.664 353.702 388.521 353.696 388.375C353.669 387.798 353.635 387.08 354.01 386.244C354.22 385.777 354.81 384.697 355.698 384.831C355.937 384.864 356.117 384.974 356.255 385.102C356.275 385.07 356.295 385.038 356.317 385.003C356.594 384.582 356.813 384.402 357.023 384.228C357.185 384.095 357.353 383.957 357.615 383.631C357.73 383.488 357.82 383.362 357.895 383.257C358.125 382.937 358.425 382.557 358.953 382.563C359.518 382.59 359.814 383.056 360.01 383.365C360.36 383.916 360.519 384.313 360.624 384.576C360.662 384.672 360.705 384.78 360.728 384.814C360.91 385.081 362.389 384.831 362.947 384.74C364.199 384.532 365.282 384.351 365.728 385.14C366.048 385.704 365.811 386.449 365.001 387.415C364.749 387.716 364.48 387.945 364.242 388.124C364.44 388.241 364.616 388.422 364.688 388.705C364.857 389.376 364.279 390.048 362.972 390.706C362.647 390.87 362.21 391.089 361.598 391.195C361.31 391.244 361.05 391.256 360.828 391.263C360.823 391.391 360.793 391.53 360.715 391.673C360.485 392.094 360.007 392.294 359.287 392.246C358.495 392.205 357.843 392.054 357.267 391.922C356.765 391.807 356.332 391.709 355.992 391.732C355.361 391.783 354.875 392.286 354.305 392.94L352.882 394.601H352.882Z" fill="#F2F2F2"/>
<path d="M354.322 378.123L351.72 379.125L351.481 379.041C350.374 378.653 349.371 378.57 348.499 378.795C348.36 378.83 348.224 378.873 348.084 378.916C347.532 379.089 346.845 379.303 345.94 379.153C345.434 379.069 344.239 378.772 344.143 377.882C344.115 377.642 344.175 377.44 344.265 377.275C344.228 377.264 344.192 377.252 344.153 377.239C343.675 377.079 343.445 376.914 343.223 376.754C343.052 376.632 342.877 376.505 342.494 376.334C342.326 376.259 342.182 376.205 342.06 376.158C341.693 376.018 341.248 375.825 341.12 375.312C341.003 374.76 341.38 374.356 341.629 374.089C342.074 373.611 342.418 373.357 342.646 373.189C342.73 373.128 342.824 373.058 342.85 373.028C343.063 372.785 342.446 371.419 342.216 370.904C341.697 369.747 341.247 368.747 341.898 368.116C342.363 367.664 343.146 367.704 344.287 368.241C344.642 368.408 344.932 368.61 345.166 368.794C345.23 368.574 345.36 368.357 345.616 368.216C346.223 367.883 347.021 368.271 347.989 369.366C348.231 369.638 348.554 370.004 348.811 370.569C348.933 370.835 349.01 371.083 349.073 371.296C349.198 371.268 349.341 371.261 349.499 371.301C349.965 371.416 350.28 371.826 350.416 372.534C350.577 373.31 350.597 373.978 350.614 374.567C350.63 375.082 350.646 375.525 350.754 375.847C350.963 376.443 351.574 376.785 352.352 377.17L354.322 378.123L354.322 378.123V378.123Z" fill="#F2F2F2"/>
<path d="M352.882 369.97L352.571 367.202L352.713 366.992C353.37 366.022 353.704 365.075 353.708 364.175C353.709 364.033 353.702 363.89 353.696 363.744C353.669 363.167 353.635 362.449 354.01 361.612C354.22 361.146 354.81 360.066 355.698 360.2C355.937 360.233 356.117 360.343 356.255 360.471C356.275 360.439 356.295 360.407 356.317 360.372C356.594 359.951 356.813 359.771 357.023 359.597C357.185 359.464 357.353 359.326 357.615 359C357.73 358.857 357.82 358.731 357.895 358.626C358.125 358.306 358.425 357.926 358.953 357.932C359.518 357.959 359.814 358.425 360.01 358.734C360.36 359.285 360.519 359.681 360.624 359.945C360.662 360.041 360.705 360.149 360.728 360.183C360.91 360.45 362.389 360.2 362.947 360.109C364.199 359.901 365.282 359.72 365.728 360.509C366.048 361.073 365.811 361.818 365.001 362.784C364.749 363.085 364.48 363.314 364.242 363.493C364.44 363.61 364.616 363.791 364.688 364.074C364.857 364.745 364.279 365.417 362.972 366.074C362.647 366.239 362.21 366.458 361.598 366.564C361.31 366.613 361.05 366.625 360.828 366.632C360.823 366.76 360.793 366.899 360.715 367.042C360.485 367.463 360.007 367.663 359.287 367.615C358.495 367.574 357.843 367.423 357.267 367.29C356.765 367.176 356.332 367.078 355.992 367.101C355.361 367.152 354.875 367.655 354.305 368.309L352.882 369.97H352.882Z" fill="#F2F2F2"/>
<path d="M355.718 423.69L355.137 423.326L354.997 422.657L355.137 423.326L354.46 423.404C354.449 423.341 354.412 423.197 354.357 422.971C354.054 421.733 353.13 417.968 352.359 412.037C351.821 407.897 351.516 403.641 351.453 399.385C351.39 395.122 351.592 391.895 351.754 389.301C351.877 387.345 352.025 385.482 352.171 383.667C352.559 378.819 352.926 374.239 352.653 369.169C352.593 368.037 352.466 365.681 351.088 363.175C350.288 361.721 349.187 360.43 347.813 359.339L348.667 358.268C350.183 359.473 351.402 360.903 352.29 362.517C353.818 365.297 353.956 367.864 354.022 369.097C354.299 374.257 353.929 378.88 353.537 383.775C353.393 385.583 353.244 387.438 353.122 389.387C352.962 391.956 352.762 395.155 352.824 399.363C352.885 403.569 353.186 407.773 353.717 411.861C354.479 417.717 355.39 421.426 355.689 422.645C355.848 423.296 355.881 423.432 355.718 423.69V423.69H355.718Z" fill="#F2F2F2"/>
<path d="M345.3 361.514C345.244 361.514 345.187 361.512 345.129 361.508C343.962 361.445 342.881 360.748 341.916 359.436C341.464 358.818 341.233 358.114 340.771 356.709C340.699 356.493 340.351 355.395 340.14 353.883C340.001 352.896 340.019 352.483 340.215 352.118C340.432 351.712 340.784 351.428 341.18 351.237C341.163 351.106 341.177 350.971 341.234 350.834C341.467 350.263 342.088 350.338 342.424 350.374C342.594 350.395 342.806 350.423 343.035 350.411C343.395 350.394 343.589 350.287 343.882 350.127C344.162 349.973 344.511 349.782 345.028 349.676C346.048 349.464 346.903 349.753 347.184 349.847C348.667 350.341 349.397 351.491 350.243 352.823C350.412 353.091 350.991 354.064 351.373 355.397C351.649 356.359 351.61 356.787 351.527 357.105C351.358 357.758 350.96 358.133 349.949 358.958C348.893 359.823 348.363 360.256 347.908 360.519C346.848 361.13 346.183 361.514 345.3 361.514V361.514Z" fill="#F2F2F2"/>
<path d="M189.833 360.383H55.4526V395.232H189.833V360.383Z" fill="#FE9A76"/>
<path d="M140.967 264.546H106.063V497.168H140.967V264.546Z" fill="#FE9A76"/>
<path opacity="0.2" d="M142.257 392.608C142.504 391.649 142.652 390.651 142.687 389.623L186.342 349.928L148.82 331.632L132.283 375.661C131.153 375.367 129.973 375.194 128.751 375.194C128.101 375.194 127.468 375.253 126.842 375.339L110.426 331.632L72.9043 349.928L114.843 388.063C114.816 388.417 114.789 388.772 114.789 389.134C114.789 390.336 114.958 391.496 115.244 392.608C89.5367 400.63 79.0125 424.854 79.0125 424.854L111.299 450.992C109.373 431.766 121.132 412.082 127.49 403.01C127.906 403.047 128.325 403.073 128.751 403.073C129.176 403.073 129.596 403.047 130.012 403.01C136.369 412.082 148.128 431.766 146.203 450.992L178.489 424.854C178.489 424.854 167.965 400.63 142.257 392.608L142.257 392.608Z" fill="black"/>
<path d="M146.998 441.573C146.621 441.573 146.242 441.492 145.884 441.324C144.977 440.902 144.405 440.022 144.389 439.027C144.124 422.171 134.498 405.628 128.784 397.268C128.402 396.71 127.743 396.376 127.02 396.376H127.017C126.268 396.376 125.609 396.71 125.228 397.268C119.513 405.628 109.887 422.171 109.622 439.027C109.607 440.021 109.034 440.902 108.128 441.324C107.212 441.753 106.156 441.623 105.373 440.989L78.5372 419.264C77.5793 418.488 77.2981 417.129 77.8688 416.032C80.5814 410.817 91.0248 393.237 111.52 386.008C112.435 385.686 112.99 384.776 112.871 383.797C112.804 383.25 112.771 382.7 112.771 382.164C112.772 381.524 112.527 380.943 112.099 380.553L73.5186 345.472C72.8787 344.891 72.57 344.033 72.6923 343.177C72.8149 342.322 73.3525 341.584 74.1301 341.205L106.252 325.543C106.911 325.221 107.679 325.193 108.362 325.463C109.043 325.734 109.582 326.283 109.84 326.969L124.733 366.624C125.041 367.442 125.829 367.976 126.724 367.954C127.399 367.939 128.083 367.978 128.766 368.066C129.729 368.195 130.637 367.652 130.974 366.753L145.917 326.969C146.175 326.283 146.713 325.734 147.395 325.463C148.077 325.193 148.846 325.221 149.505 325.543L181.626 341.205C182.404 341.584 182.942 342.322 183.064 343.178C183.187 344.033 182.878 344.891 182.238 345.472L141.818 382.226C141.441 382.569 141.207 383.036 141.158 383.542C141.147 383.652 141.136 383.761 141.123 383.87C141.012 384.79 141.585 385.689 142.485 386.006C162.985 393.233 173.43 410.816 176.143 416.032C176.713 417.129 176.432 418.488 175.474 419.264L148.639 440.989C148.162 441.375 147.584 441.573 146.998 441.573Z" fill="#FC8B62"/>
<path d="M373.647 497.927H260.949C256.284 497.927 252.489 494.138 252.489 489.481V432.229C252.489 427.571 256.284 423.782 260.949 423.782H373.647C378.312 423.782 382.107 427.571 382.107 432.229V489.481C382.107 494.138 378.312 497.927 373.647 497.927ZM260.949 424.874C256.887 424.874 253.583 428.173 253.583 432.229V489.481C253.583 493.536 256.887 496.835 260.949 496.835H373.647C377.708 496.835 381.013 493.536 381.013 489.481V432.229C381.013 428.173 377.708 424.874 373.647 424.874H260.949Z" fill="#E6E6E6"/>
<path d="M328.61 497.862V423.847H309.355V497.862H328.61Z" fill="#FE9A76"/>
<path d="M381.56 470.947V451.723H253.036V470.947H381.56Z" fill="#FE9A76"/>
<path opacity="0.2" d="M313.539 473.296C314.069 473.432 314.621 473.513 315.189 473.533L337.12 497.578L347.229 476.911L322.902 467.803C323.065 467.18 323.161 466.53 323.161 465.857C323.161 465.499 323.128 465.15 323.081 464.806L347.229 455.764L337.12 435.098L316.051 458.197C315.855 458.182 315.659 458.167 315.459 458.167C314.795 458.167 314.154 458.26 313.539 458.418C309.107 444.259 295.723 438.462 295.723 438.462L281.282 456.245C291.905 455.184 302.78 461.661 307.792 465.162C307.772 465.392 307.757 465.622 307.757 465.857C307.757 466.091 307.772 466.322 307.792 466.551C302.78 470.053 291.905 476.53 281.282 475.469L295.723 493.252C295.723 493.252 309.107 487.455 313.539 473.296H313.539Z" fill="black"/>
<path d="M337.911 494.271C337.475 494.271 337.056 494.089 336.758 493.762L316.45 471.498C316.282 471.314 316.039 471.198 315.763 471.17L315.676 471.161C315.18 471.106 314.727 471.374 314.572 471.814C310.563 483.161 300.805 488.936 297.909 490.435C297.257 490.774 296.447 490.604 295.982 490.03L283.978 475.248C283.598 474.78 283.521 474.148 283.777 473.6C284.03 473.06 284.556 472.719 285.15 472.71C294.43 472.567 303.549 467.278 308.158 464.138C308.435 463.949 308.601 463.623 308.6 463.265C308.601 462.892 308.436 462.566 308.158 462.377C303.549 459.237 294.432 453.948 285.149 453.805C284.556 453.796 284.03 453.455 283.777 452.915C283.521 452.367 283.598 451.735 283.978 451.267L295.983 436.484C296.448 435.913 297.258 435.742 297.909 436.079C300.804 437.579 310.561 443.353 314.57 454.696C314.725 455.136 315.169 455.41 315.616 455.356C316.102 455.295 316.587 455.281 317.055 455.316L336.758 433.714C337.106 433.332 337.621 433.147 338.133 433.221C338.646 433.295 339.088 433.616 339.315 434.08L347.969 451.774C348.162 452.168 348.179 452.627 348.017 453.035C347.854 453.442 347.526 453.763 347.115 453.917L325.204 462.12C324.801 462.271 324.538 462.665 324.549 463.099L324.551 463.257C324.551 463.598 324.527 463.944 324.48 464.286C324.42 464.727 324.695 465.165 325.134 465.33L347.115 473.559C347.526 473.714 347.855 474.035 348.017 474.443C348.179 474.85 348.162 475.309 347.969 475.703L339.315 493.397C339.088 493.861 338.646 494.182 338.133 494.255C338.059 494.266 337.985 494.271 337.911 494.271Z" fill="#FC8B62"/>
<path d="M235.844 357.752H218.219V351.958C218.219 342.245 226.117 334.36 235.844 334.36H235.844V357.752Z" fill="#2F2E41"/>
<path d="M231.937 346.935L234.968 360.544L217.21 357.6L224.446 344.729L231.937 346.935Z" fill="#FFB6B6"/>
<path opacity="0.1" d="M231.937 346.935L234.968 360.544L217.21 357.6L224.446 344.729L231.937 346.935Z" fill="black"/>
<path d="M214.912 401.165H231.938V376.007H214.912V401.165Z" fill="#FFB6B6"/>
<path d="M243.004 421.733L239.258 441.791C239.258 441.791 241.642 455.73 234.491 470.009L229.724 484.628L222.574 483.608C222.574 483.608 227 472.729 227 467.969C227 463.21 228.022 444.851 228.022 444.851L227.511 423.903L243.004 421.733Z" fill="#FFB6B6"/>
<path d="M221.552 483.268C221.552 483.268 229.724 480.208 230.405 484.628L230.065 486.668C230.065 486.668 233.129 495.847 228.703 496.527C224.276 497.207 220.19 498.227 219.85 496.187C219.509 494.147 219.515 491.601 220.363 489.814C221.212 488.028 221.552 483.268 221.552 483.268Z" fill="#2F2E41"/>
<path d="M217.228 418.622L215.238 438.929C215.238 438.929 209.066 451.656 211.957 467.357L212.464 482.722L219.617 483.728C219.617 483.728 218.395 472.049 219.721 467.477C221.047 462.906 225.179 444.988 225.179 444.988L231.505 425.008L217.228 418.622Z" fill="#FFB6B6"/>
<path d="M220.693 483.685C220.693 483.685 213.695 478.477 211.81 482.533L211.569 484.587C211.569 484.587 206.166 494.739 210.228 496.621C214.291 498.503 217.834 498.432 218.73 496.567C219.625 494.702 220.329 492.255 220.011 490.303C219.694 488.352 220.693 483.685 220.693 483.685Z" fill="#2F2E41"/>
<path d="M238.577 389.436L253.219 420.373C253.219 420.373 223.765 435.162 206.4 435.162L215.022 389.436H238.577Z" fill="#2F2E41"/>
<path d="M225.468 353.229L233.98 354.589L233.299 376.007L242.833 395.045L230.575 401.165C230.575 401.165 221.041 383.146 219.339 371.927C217.636 360.708 218.658 352.549 218.658 352.549L225.468 353.229Z" fill="#E6E6E6"/>
<path d="M218.999 353.909L210.486 355.269L211.167 376.687L209.124 396.405L213.891 401.845C213.891 401.845 223.425 383.826 225.128 372.607C226.83 361.388 225.809 353.229 225.809 353.229L218.999 353.909Z" fill="#E6E6E6"/>
<path d="M232.108 355.099L233.981 354.589C233.981 354.589 240.62 353.739 241.642 356.459C242.663 359.178 242.323 375.157 242.323 375.157C242.323 375.157 244.08 394.768 237.243 394.992C230.405 395.215 231.767 378.897 231.767 378.897L232.108 355.099Z" fill="#E6E6E6"/>
<path d="M228.966 350.67C233.833 350.67 237.778 346.731 237.778 341.871C237.778 337.012 233.833 333.073 228.966 333.073C224.099 333.073 220.153 337.012 220.153 341.871C220.153 346.731 224.099 350.67 228.966 350.67Z" fill="#FFB6B6"/>
<path d="M226.209 353.981C228.1 353.502 230.243 355.518 230.997 358.485C231.315 359.666 231.344 360.906 231.083 362.101L231.896 365.474L231.955 365.47L238.363 380.548C239.853 384.053 239.695 388.078 237.795 391.38C236.665 393.344 235.181 394.665 233.439 393.317C230.547 391.08 228.659 378.273 227.797 370.917L225.803 363.439C225.003 362.512 224.437 361.408 224.151 360.218C223.397 357.253 224.319 354.46 226.209 353.981V353.981Z" fill="#FFB6B6"/>
<path d="M217.977 355.099L216.104 354.589C216.104 354.589 209.465 353.739 208.443 356.459C207.422 359.178 207.762 375.157 207.762 375.157C207.762 375.157 206.005 394.768 212.842 394.992C219.68 395.215 218.318 378.897 218.318 378.897L217.977 355.099H217.977Z" fill="#E6E6E6"/>
<path d="M223.876 353.981C221.985 353.502 219.842 355.518 219.088 358.485C218.77 359.666 218.741 360.906 219.001 362.101L218.189 365.474L218.129 365.47L211.722 380.548C210.232 384.053 210.389 388.078 212.29 391.38C213.42 393.344 214.904 394.665 216.646 393.317C219.537 391.08 221.426 378.273 222.288 370.917L224.282 363.439C225.082 362.512 225.648 361.408 225.933 360.218C226.687 357.253 225.766 354.46 223.876 353.981V353.981Z" fill="#FFB6B6"/>
<path d="M212.095 348.99C212.543 347.629 213.428 346.437 213.824 345.061C214.35 343.232 215.469 347.288 215.578 345.389C215.785 341.78 221.303 332.495 224.452 330.712C227.602 328.929 229.411 329.466 232.62 331.141C232.62 331.141 234.178 331.24 236.117 332.196C238.056 333.152 239.802 334.683 240.556 336.707C241.154 338.311 241.088 340.072 241.287 341.772C241.844 346.508 244.503 351.012 243.932 355.746C243.754 357.223 243.192 358.75 241.982 359.619C240.773 360.488 238.819 360.393 238.022 359.136C237.751 358.707 237.636 358.198 237.403 357.746C237.17 357.295 236.75 356.874 236.241 356.888C235.477 356.909 235.088 357.933 235.39 358.634C235.691 359.335 236.399 359.759 237.064 360.135C235.481 360.847 233.517 360.625 232.133 359.579C230.748 358.534 230.001 356.707 230.255 354.993C230.614 352.577 234.139 353.077 234.555 350.67C234.857 348.918 235.918 345.986 235.629 344.232C235.34 342.478 233.951 344.602 235.414 343.588C233.805 344.363 230.362 339.063 228.677 338.47C226.992 337.876 225.564 336.591 224.798 334.979C223.01 337.566 221.438 336.863 220.798 339.94C220.158 343.017 220.75 350.006 223.386 351.724C222.331 352.443 221.49 353.47 220.995 354.645C220.715 355.311 220.533 356.039 220.068 356.592C219.179 357.648 217.538 357.713 216.23 357.269C214.609 356.718 213.222 355.509 212.457 353.978C211.693 352.448 211.56 350.614 212.095 348.99Z" fill="#2F2E41"/>
</g>
</g>
<defs>
<linearGradient id="paint0_linear_836_3585" x1="14.5" y1="3" x2="14.5" y2="186" gradientUnits="userSpaceOnUse">
<stop stop-color="#FE9A76" stop-opacity="0.25"/>
<stop offset="1" stop-color="#FFF2F2" stop-opacity="0"/>
</linearGradient>
<linearGradient id="paint1_linear_836_3585" x1="62.5" y1="223" x2="62.5" y2="288" gradientUnits="userSpaceOnUse">
<stop stop-color="#FE9A76" stop-opacity="0.25"/>
<stop offset="1" stop-color="#FFF2F2" stop-opacity="0"/>
</linearGradient>
<linearGradient id="paint2_linear_836_3585" x1="453.5" y1="1" x2="453.5" y2="492" gradientUnits="userSpaceOnUse">
<stop stop-color="#FE9A76" stop-opacity="0.25"/>
<stop offset="1" stop-color="#FFF2F2" stop-opacity="0"/>
</linearGradient>
<clipPath id="clip0_836_3585">
<rect width="428" height="500" fill="white"/>
</clipPath>
<clipPath id="clip1_836_3585">
<rect width="375" height="234" fill="white" transform="translate(26 264)"/>
</clipPath>
</defs>
</svg>
